<svg width="15" height="12" viewBox="0 0 15 12" fill="none"
    xmlns="http://www.w3.org/2000/svg">
    <path d="M2.5 0C1.83696 0 1.20107 0.252856 0.732233 0.702944C0.263392 1.15303 0 1.76348 0 2.4V2.6412L7.5 6.5184L15 2.6424V2.4C15 1.76348 14.7366 1.15303 14.2678 0.702944C13.7989 0.252856 13.163 0 12.5 0H2.5ZM15 4.0044L7.79625 7.728C7.7052 7.77505 7.60341 7.79969 7.5 7.79969C7.39659 7.79969 7.2948 7.77505 7.20375 7.728L0 4.0044V9.6C0 10.2365 0.263392 10.847 0.732233 11.2971C1.20107 11.7471 1.83696 12 2.5 12H12.5C13.163 12 13.7989 11.7471 14.2678 11.2971C14.7366 10.847 15 10.2365 15 9.6V4.0044Z" fill="currentColor"/>
</svg>
