<svg width="42" height="37" viewBox="0 0 42 37" fill="none"
    xmlns="http://www.w3.org/2000/svg">
    <path d="M21.0003 7.06067L19.1945 5.2664C14.9557 1.05461 7.18332 2.50804 4.37761 7.80321C3.06038 10.2938 2.76319 13.8896 5.16844 18.4788C7.48555 22.8975 12.3061 28.1902 21.0003 33.9552C29.6945 28.1902 34.5126 22.8975 36.8322 18.4788C39.2375 13.8872 38.9428 10.2938 37.6231 7.80321C34.8173 2.50804 27.045 1.05217 22.8062 5.26396L21.0003 7.06067ZM21.0003 36.8889C-17.6173 12.2219 9.11005 -7.03057 20.5571 3.1532C20.7082 3.28791 20.8559 3.42668 21.0003 3.56951C21.1422 3.42578 21.2901 3.28771 21.4436 3.15563C32.8881 -7.03544 59.618 12.2195 21.0003 36.8889Z" fill="currentColor"/>
</svg>
