<svg width="230" height="68" viewBox="0 0 230 68" fill="none"
    xmlns="http://www.w3.org/2000/svg">
    <g filter="url(#filter0_d_166_155)">
        <path d="M8.35346 39.2791L8.30198 39.0152C8.21171 39.0328 7.84336 39.0582 7.33925 39.0657C6.84579 39.0731 6.25093 39.063 5.72224 39.017C5.45775 38.994 5.21432 38.9624 5.01061 38.9208C4.80165 38.8781 4.65547 38.8289 4.57156 38.7805C4.56595 38.7773 4.56094 38.7743 4.55646 38.7715C4.55713 38.7707 4.55782 38.7699 4.55853 38.769C4.58892 38.7335 4.64207 38.685 4.72886 38.6247L4.72893 38.6248L4.73526 38.6201C4.80953 38.5652 4.90851 38.5259 5.04266 38.488C5.08151 38.477 5.12891 38.465 5.18012 38.4519C5.27842 38.4269 5.39078 38.3983 5.48371 38.367C5.77932 38.2677 6.19408 38.0384 6.28585 37.5991L6.28599 37.5991L6.2875 37.5904C6.35769 37.1895 6.13273 36.9031 5.91323 36.7052C5.80268 36.6056 5.67756 36.5139 5.56559 36.4319L5.56462 36.4312C5.44843 36.346 5.34575 36.2707 5.25848 36.1931C4.84882 35.8165 4.73043 35.1343 4.98388 34.6234L4.98393 34.6234L4.98623 34.6185C5.22629 34.1092 5.79578 33.773 6.39365 33.7593C6.76896 33.7528 7.13684 33.8687 7.51922 34.0486C7.76597 34.1646 7.998 34.2961 8.23819 34.4322C8.38219 34.5138 8.52912 34.5971 8.6839 34.6797L8.68387 34.6798L8.68948 34.6826C8.6937 34.6847 8.69818 34.687 8.70291 34.6894C8.78537 34.7314 8.94338 34.8119 9.13402 34.786C9.42887 34.7507 9.55624 34.4952 9.60745 34.3611C9.74095 34.0637 9.80971 33.7477 9.86819 33.4549C9.87524 33.4196 9.88215 33.3846 9.88898 33.35C9.94105 33.0863 9.98904 32.8433 10.0698 32.6117C10.1552 32.3666 10.3096 32.1279 10.4963 31.9666C10.6822 31.8061 10.8764 31.7398 11.0617 31.7742L11.0617 31.7742L11.0662 31.775C11.3124 31.8163 11.5305 32.0332 11.7417 32.3368C12.1819 32.9961 12.411 33.7872 12.411 34.596C12.411 35.1272 12.3119 35.6632 12.1385 36.1906C11.51 37.6757 9.88462 38.7051 8.30175 39.0153L8.35346 39.2791ZM8.35346 39.2791C9.99871 38.9567 11.7201 37.8819 12.3904 36.285L4.74303 34.5039C4.43835 35.1181 4.57546 35.9319 5.07817 36.3925C5.17573 36.4795 5.28807 36.5618 5.40063 36.6443C5.74507 36.8967 6.09157 37.1506 6.02267 37.5441C5.96174 37.8358 5.6723 38.0201 5.39809 38.1122C5.31267 38.1409 5.22283 38.1636 5.13269 38.1864C4.93345 38.2369 4.73279 38.2876 4.57546 38.4039C3.00637 39.4941 7.88121 39.3712 8.35346 39.2791ZM4.52203 38.7448C4.52232 38.7448 4.52382 38.7462 4.52571 38.7491C4.52269 38.7463 4.52175 38.7448 4.52203 38.7448Z" fill="#546B9E" fill-opacity="0.35" stroke="#96B6DC" stroke-width="0.537709"/>
        <path d="M9.89206 38.1277C8.1554 38.2352 6.4035 38.2199 4.65161 38.0817C4.20983 38.051 3.73758 37.9896 3.3872 37.7285C3.03682 37.4675 2.85401 36.8994 3.14346 36.5616C3.31103 36.3466 3.60047 36.2852 3.85945 36.2392C5.97696 35.8553 8.21633 36.2545 10.0596 37.3447C9.46551 37.836 8.53624 37.5596 7.95736 37.0529C7.37847 36.5462 6.99762 35.8399 6.4035 35.3486C5.85509 34.888 5.10863 34.5502 4.95629 33.8592C4.78871 33.0301 5.70275 32.2931 6.54061 32.3699C7.37847 32.4466 8.064 33.0608 8.61241 33.7057C9.49598 34.7651 10.1663 35.9935 10.5928 37.314C10.0901 35.9474 9.90729 34.4734 10.0596 33.0301C10.1663 32.0014 10.6538 30.7884 11.6744 30.6655C12.4361 30.5734 13.1521 31.2337 13.3654 31.9707C13.5787 32.723 13.4263 33.5214 13.1978 34.2738C12.8322 35.4868 12.2838 36.6537 11.5983 37.7132C11.1108 38.4655 10.1967 39.2486 9.41981 38.8033C8.77999 38.4348 8.82569 37.3447 9.43504 36.9301C10.0444 36.5002 10.9584 36.7305 11.4307 37.2986C11.7506 37.6671 11.9182 38.2045 11.7658 38.6805C11.6135 39.1565 11.0803 39.4943 10.6081 39.3407C10.1358 39.1872 9.93776 38.4809 10.2881 38.1585C10.3338 38.1277 11.4916 40.6305 11.6135 40.9069C11.9639 41.736 12.1467 42.6419 12.3599 43.5171C12.6037 44.4844 12.101 45.5285 12.0705 46.5112C12.04 47.9238 12.756 49.2903 12.7408 50.7029C12.4666 50.0273 12.1924 49.3364 11.9029 48.6608C11.6744 48.1081 11.4459 47.5553 11.0651 47.0947C10.6233 46.5726 10.0139 46.1888 9.52645 45.6974C8.96279 45.1293 8.2468 44.899 7.46987 44.7915C6.98239 44.7301 6.49491 44.7147 6.02266 44.8683C5.56564 45.0218 5.13909 45.3596 4.97152 45.8203C4.80395 46.2809 4.94105 46.8644 5.33713 47.1254C5.68751 47.3557 6.14453 47.325 6.57108 47.2636C7.80502 47.0947 9.1456 46.3577 10.3338 46.8643C11.0194 47.1561 11.7963 48.0927 11.8268 48.8758C11.324 48.6915 11.1869 48.0773 10.8823 47.6474C10.669 47.3403 10.3643 47.11 10.0596 46.8797C9.72449 46.6187 9.37411 46.3577 8.97803 46.2041C8.46008 45.9892 7.88119 45.9584 7.33277 45.9277" stroke="#96B6DC" stroke-width="0.537709" stroke-miterlimit="10" stroke-linecap="round" stroke-linejoin="round"/>
        <path d="M54.2353 56.2374L54.2353 56.2374L54.2385 56.2416C54.5659 56.6639 54.5919 57.15 54.2602 57.4844C54.0337 57.7126 53.6787 57.8644 53.2606 58.0205C51.7476 58.5791 50.0826 58.927 48.3864 59.0329L48.3864 59.0329L48.3836 59.0331C47.3507 59.1086 46.2532 59.0701 45.2723 58.8654C44.288 58.6598 43.4481 58.2925 42.8986 57.7321C42.4564 57.272 42.2279 56.7078 42.0488 56.1212L42.0488 56.121C41.8149 55.3567 41.8642 54.4934 42.2797 53.8369C42.6862 53.1948 43.4756 52.7003 44.8339 52.7221C47.3887 52.767 50.6169 54.0926 52.6848 55.1347C53.3283 55.459 53.9123 55.8033 54.2353 56.2374Z" stroke="#96B6DC" stroke-width="0.537709"/>
        <path d="M30.532 51.4728L30.534 51.4716C32.3818 50.3761 33.9881 48.7855 35.4817 47.2033C35.482 47.203 35.4822 47.2028 35.4824 47.2025L35.5141 47.1695C35.9688 46.6957 36.3784 46.269 36.9109 46.0543L36.9109 46.0544L36.9162 46.0521C37.4566 45.8206 38.0935 45.898 38.4192 46.2719C38.6359 46.5274 38.7063 46.8801 38.7684 47.3022C38.9645 48.6708 39.0799 50.3501 38.895 51.9425C38.7095 53.5399 38.2261 55.0143 37.2572 56.0126L37.2572 56.0126C35.2901 58.0404 32.6613 59.3226 29.9045 59.8511L29.9043 59.8511C26.0461 60.5926 22.0392 59.9894 18.1458 59.131L18.1443 59.1306C16.499 58.7775 14.8804 58.3417 13.6244 57.3407C11.1916 55.3962 11.3721 52.1053 12.1013 49.239C12.1127 49.2005 12.1224 49.166 12.1313 49.1347C12.1642 49.018 12.1849 48.9445 12.2338 48.8706L12.2339 48.8706L12.2358 48.8675C12.3409 48.7038 12.5546 48.6155 12.7423 48.6584C12.7835 48.6723 12.849 48.6939 12.9171 48.7028C12.9964 48.7133 13.1028 48.7103 13.2078 48.6496C13.2713 48.6146 13.3127 48.5649 13.3326 48.5391C13.358 48.5062 13.3785 48.4716 13.393 48.4425C13.4459 48.3359 13.4863 48.2289 13.5211 48.131C13.5324 48.0994 13.5428 48.0696 13.5528 48.0408C13.5753 47.9761 13.5958 47.9172 13.6195 47.8571C13.6847 47.6911 13.7549 47.5674 13.8711 47.4715C14.1237 47.2657 14.5694 47.1625 14.9687 47.1326C16.0129 47.0628 17.0094 47.6102 17.99 48.2279C19.585 49.2384 21.1492 50.2946 22.6826 51.4116L22.6838 51.4125C22.7355 51.4497 22.7874 51.4873 22.8396 51.525C23.4208 51.9458 24.0366 52.3915 24.7509 52.6314L24.7521 52.6318C25.7959 52.9771 26.9359 52.874 27.9549 52.5897C28.8821 52.3361 29.7264 51.9413 30.532 51.4728ZM22.9923 51.3036C22.9419 51.2672 22.8914 51.2307 22.8409 51.1943L27.8833 52.3305C26.8931 52.6069 25.8115 52.699 24.8365 52.3766C24.163 52.1503 23.58 51.7287 22.9923 51.3036Z" fill="#546B9E" fill-opacity="0.25" stroke="#96B6DC" stroke-width="0.537709"/>
        <path d="M29.6953 2.32835L29.6953 2.32836L29.6975 2.32915C30.514 2.61871 31.271 3.01875 31.6015 3.69658C31.8499 4.22523 31.7927 4.88331 31.6713 5.54132C31.2681 7.5715 30.2596 9.54908 28.5613 10.6317L28.5606 10.6321C27.2392 11.4797 25.7166 11.3486 24.3704 10.6326C23.0199 9.9142 21.8817 8.62151 21.372 7.2197C20.9372 6.0217 20.9748 4.75027 21.6913 3.70195C22.5056 2.52169 23.9192 1.82969 25.3539 1.66733C26.8056 1.50479 28.2848 1.81414 29.6953 2.32835Z" fill="#546B9E" fill-opacity="0.3" stroke="#96B6DC" stroke-width="0.537709"/>
        <path d="M14.0386 28.5164L14.0386 28.5165C14.8591 32.0541 15.8619 35.5307 17.0321 38.9463L14.0386 28.5164ZM14.0386 28.5164C13.4116 25.8194 12.9738 22.9172 14.3554 20.6889M14.0386 28.5164L14.3554 20.6889M14.3554 20.6889C15.7798 18.4038 18.6801 17.5418 21.4586 17.0186L21.4594 17.0185C24.1773 16.4981 26.9256 16.1155 29.6892 15.8707L14.3554 20.6889ZM38.0299 16.2092L38.0299 16.2091C36.8924 15.8023 35.4243 15.6605 33.9199 15.651C32.4199 15.6415 30.9076 15.7632 29.6893 15.8706L38.0299 16.2092ZM38.0299 16.2092C39.2099 16.631 39.7754 17.672 39.9958 18.946C40.2166 20.2218 40.0778 21.6719 39.8963 22.7917C39.5336 25.0232 38.9323 27.2013 38.2817 29.3793C38.1287 29.8916 37.9728 30.4043 37.8167 30.9177C37.3107 32.5821 36.8025 34.2537 36.3818 35.9438L36.3816 35.9445C36.1492 36.8895 36.0125 37.8477 35.8946 38.7908C35.8686 38.9994 35.8435 39.207 35.8185 39.4135C35.73 40.1452 35.643 40.8638 35.5209 41.5691C35.2088 43.3715 34.6735 45.0384 33.3396 46.4492M38.0299 16.2092L20.6015 47.6012M20.6015 47.6012C21.9116 48.5839 24.1967 48.891 25.7657 48.9831C28.5535 49.152 31.6003 48.676 33.535 46.6339L33.3398 46.449C33.3398 46.4491 33.3397 46.4491 33.3396 46.4492M20.6015 47.6012C19.5101 46.7914 18.9758 45.1917 18.508 43.791C18.3815 43.4125 18.26 43.0485 18.1336 42.7186L20.6015 47.6012ZM33.3396 46.4492C31.4881 48.4034 28.5439 48.8821 25.782 48.7148L25.7815 48.7147C25.0053 48.6692 24.0577 48.5707 23.1459 48.3639C22.2298 48.1562 21.3737 47.8444 20.7628 47.3862L20.7617 47.3853C20.1293 46.9161 19.6838 46.1402 19.3191 45.2534C19.1381 44.8133 18.9806 44.3552 18.8298 43.9056C18.8075 43.8392 18.7854 43.7729 18.7633 43.7069C18.637 43.3287 18.5133 42.9583 18.3846 42.6224L18.3841 42.621C17.9128 41.4105 17.4572 40.1858 17.0321 38.9464L33.3396 46.4492Z" stroke="#96B6DC" stroke-width="0.537709"/>
        <path d="M35.3478 41.0143C35.5002 41.6746 36.0638 42.1505 36.4447 42.734C37.2825 44.0084 37.0845 45.6667 37.054 47.1868C37.0083 48.7068 37.2978 50.4879 38.6079 51.2556C38.9887 51.4706 39.4305 51.5934 39.7047 51.9312C40.3141 52.6836 39.6438 53.7738 38.943 54.4186C35.6982 57.3974 31.2499 58.5643 26.954 59.4856C24.6384 59.9769 22.2924 60.4375 19.9464 60.284C16.6863 60.069 14.1727 58.4875 11.9943 56.1076C11.7049 55.7852 11.4154 55.4474 11.2935 55.0328C11.1107 54.4493 11.2631 53.8198 11.3392 53.2056C11.4307 52.5147 11.3545 51.8084 11.4307 51.1175C11.5221 50.3958 11.7201 49.6742 11.9334 48.9986C11.9943 48.8143 12.0552 48.6301 12.1771 48.4919C12.299 48.3537 12.5123 48.2769 12.6798 48.369C13.2587 48.6608 13.4263 50.2576 13.6091 50.8104C13.9138 51.7777 14.2489 52.7297 14.6907 53.6202C15.4067 55.0789 16.4731 56.4454 17.905 57.2131C18.7429 57.6738 19.6874 57.9041 20.6167 58.0883C24.6232 58.856 28.9039 58.6564 32.5753 56.86C34.8908 55.7238 36.8864 53.9734 38.3337 51.8238C37.8005 51.0253 36.5361 51.1789 35.8201 51.8238C35.1041 52.4533 34.7537 53.3899 34.251 54.2037C33.3827 55.5702 32.0116 56.5836 30.4578 57.0135C28.9039 57.4434 27.2129 57.2592 25.781 56.5375C24.7603 56.0155 23.8615 55.2324 22.7799 54.8793C21.8506 54.5722 20.8604 54.6029 19.8854 54.5415C18.9105 54.4801 17.8898 54.2805 17.1586 53.6356C16.7016 53.2364 16.4121 52.6836 16.1227 52.1462C15.2087 50.4726 14.3099 48.8143 13.3958 47.1407C13.2892 46.9411 13.1825 46.7415 13.1978 46.5265C13.213 46.2194 13.4568 45.9738 13.6853 45.7895C14.4013 45.1907 15.2086 44.6994 16.077 44.3462C16.4274 44.1927 16.8387 44.0698 17.2043 44.2234C17.448 44.3155 17.6308 44.5305 17.8746 44.6379C18.1183 44.7301 18.4839 44.6379 18.4992 44.3769C18.5296 44.0238 17.966 43.9316 17.8441 43.6092C17.6918 43.2407 18.9257 42.2734 19.1542 41.9049C19.6417 41.1218 19.9159 40.2005 20.0226 39.2793C20.2358 37.4214 19.7788 35.6096 19.6722 33.7671C19.5655 31.8939 19.3827 30.0206 19.1238 28.1781C19.0019 27.2876 18.8495 26.397 18.7124 25.5218C18.423 25.4911 18.2859 25.8596 18.2554 26.1513C18.1183 27.7175 18.6667 29.2529 19.0476 30.7883C19.6722 33.3525 19.794 36.0242 19.4132 38.6344C19.1847 38.6958 19.0171 38.4348 18.9257 38.2045C17.4023 34.2738 16.4731 30.1281 15.559 26.0131C15.3001 24.8769 15.0563 23.7407 14.9649 22.5891C14.8735 21.4222 14.9954 20.1478 15.7723 19.2726C16.3055 18.6738 17.0824 18.3667 17.8289 18.0903C19.6874 17.4301 21.6069 16.9695 23.4197 16.2017C25.1107 15.4801 25.5067 14.3132 26.0552 12.6395C26.0856 12.5474 26.1161 12.4553 26.0856 12.3632C26.0095 12.1328 25.6896 12.1482 25.4458 12.1636C24.349 12.225 23.4654 11.2884 22.8408 10.3825C21.8963 9.01592 21.1042 7.46513 21.0432 5.80687C20.9975 4.82419 21.2565 3.74939 22.0334 3.13521C22.8104 2.52104 23.9224 2.52104 24.8974 2.75136C25.263 2.84348 25.6439 2.95096 25.9333 3.18128C26.2227 3.41159 26.4208 3.73403 26.5426 4.08718C26.8321 4.96238 26.5274 5.99112 25.8876 6.65135C25.2325 7.31159 24.288 7.61868 23.374 7.57261C22.2924 7.52655 21.226 6.98915 20.6471 6.08324C20.053 5.17734 20.0226 3.90293 20.6471 3.02773C21.3479 2.04506 22.658 1.73797 23.8463 1.72262C24.5775 1.70726 25.3544 1.79939 25.8876 2.29073C26.7255 3.0738 26.5122 4.57852 25.9181 5.45372C25.6286 5.88364 25.1564 6.22143 24.6536 6.25214C24.547 6.2675 24.4251 6.25214 24.3185 6.20608C24.1662 6.12931 24.0748 5.94505 24.0291 5.77616C23.9072 5.30017 24.0138 4.79348 24.2271 4.34821C24.4404 3.90293 24.7603 3.53443 25.0802 3.16592C25.7048 2.45962 26.3751 1.76868 27.2129 1.38482C28.066 1.00096 29.041 0.970255 29.9703 1.01632C30.6863 1.06238 31.4175 1.15451 32.0725 1.43088C32.621 1.6612 33.1084 2.0297 33.4893 2.49033C33.8549 2.92025 34.1139 3.42695 34.3424 3.94899C34.4643 4.24073 34.5861 4.54781 34.6928 4.83954C34.7994 5.11592 34.8908 5.3923 34.8603 5.68403C34.8146 6.16001 34.4186 6.51316 33.9768 6.71277C33.5502 6.91238 33.078 6.98915 32.6514 7.18875C31.9354 7.5112 31.7222 8.15608 31.3566 8.7856C30.9452 9.47655 30.5492 10.1828 30.3206 10.9659C30.0921 11.7336 30.0617 12.5935 30.3816 13.3305C30.5949 13.8065 30.9452 14.221 31.3261 14.5742C32.7276 15.9254 34.5861 16.8006 36.5208 17.0002C37.4501 17.0923 38.4708 17.0616 39.2477 17.599C40.1617 18.2285 40.4664 19.4108 40.6949 20.5009C40.9387 21.6525 41.2586 22.8041 41.3043 23.971C41.3652 25.2608 41.3652 26.5506 41.3347 27.8403C41.3043 29.2222 41.2586 30.5887 41.2129 31.9706C41.1367 34.0435 41.2738 36.0702 41.3957 38.1431C41.4109 38.2813 41.4109 38.4501 41.3043 38.5576C41.2433 38.619 41.1519 38.6498 41.0605 38.6651C40.7863 38.7419 40.4969 38.8186 40.2227 38.8801C40.0399 38.9261 39.857 38.9722 39.6742 38.9568C39.4914 38.9415 39.3086 38.8186 39.2477 38.6498C39.1715 38.4194 39.3239 38.1738 39.5371 38.0663C39.7504 37.9588 39.9942 37.9742 40.2227 37.9895C40.6797 38.0356 41.1519 38.1584 41.4414 38.5269C41.6242 38.7572 41.7003 39.049 41.7613 39.3407C42.5839 42.8722 42.782 46.4805 43.6655 49.9966C43.8331 50.6722 44.0159 51.3478 44.2292 52.0234C44.3967 52.5915 44.5186 53.0367 45.0518 53.3899C45.3108 53.5742 45.6154 53.6816 45.9201 53.7584C46.6057 53.9427 47.2455 53.8659 47.931 53.958C48.5251 54.0348 49.0735 54.2651 49.6524 54.434C50.3836 54.649 51.1453 54.7411 51.907 54.7257C52.0441 54.7257 52.227 54.7564 52.2422 54.8946C52.2422 54.9253 52.2422 54.9714 52.227 55.0021C52.1508 55.1864 51.9832 55.3245 51.7852 55.3553C52.7449 55.6009 53.7046 55.8466 54.6644 56.0923C54.9233 56.1537 55.4261 56.4608 55.1519 56.7832C55.289 56.8753 55.5327 56.9675 55.5784 57.121C55.6241 57.2745 55.5479 57.4434 55.4108 57.5202C55.2737 57.6123 55.1214 57.6277 54.9691 57.6277C54.8167 57.6277 54.5273 57.5509 54.3902 57.597C54.2531 57.643 54.2378 57.8119 54.0855 57.8734C53.9788 57.9194 53.857 57.9194 53.7351 57.9194C52.684 57.9041 51.709 57.4127 50.6731 57.2131C50.7493 57.4434 51.0235 57.5356 51.252 57.597C51.6938 57.7198 52.1203 57.8887 52.5316 58.073C52.5926 58.1037 52.6687 58.1497 52.6992 58.2112C52.7754 58.4108 52.4555 58.5182 52.3031 58.5336C52.0898 58.5489 51.8918 58.4568 51.6938 58.4108C50.6883 58.2112 49.7438 57.858 48.7536 57.6584C47.8548 57.4742 46.9408 57.2745 46.042 57.121C45.1889 56.9828 44.3967 56.9214 43.635 56.4454C43.4522 56.3379 43.2694 56.1997 43.1019 56.0615C42.7058 55.7238 42.3859 55.3245 42.0507 54.9253C41.7003 54.4954 41.7308 54.0655 41.6546 53.5434C41.548 52.8218 41.289 52.1155 41.0453 51.4245C39.8875 48.2155 38.6383 45.0218 37.6634 41.7513C37.2673 40.4001 36.9321 39.0183 36.9474 37.6057C36.9626 36.3159 37.2521 35.0261 37.1759 33.7364C37.115 32.8151 36.8712 31.8939 37.054 30.9879C37.2216 30.2049 37.7091 29.5293 37.9071 28.7616C38.1966 27.6868 37.9223 26.4584 38.4708 25.5065C38.745 25.0305 39.202 24.6466 39.2477 24.1092C38.9735 24.0324 38.7297 24.3395 38.6079 24.6006C37.7243 26.5198 37.6177 28.7002 37.0693 30.7576C36.4904 32.9226 35.424 34.934 34.9517 37.1297C34.6318 38.5883 34.5861 40.1238 33.9615 41.4749C35.1193 41.7974 35.5002 43.3328 35.1193 44.4844C34.7385 45.6206 33.8701 46.5265 33.2456 47.5553C32.3163 49.0753 31.9202 50.8718 31.0366 52.4226C30.8995 52.6682 30.732 52.9139 30.473 53.0521C30.0617 53.2824 29.5437 53.1442 29.1019 52.9907C26.177 52.008 23.3435 50.7797 20.6319 49.321C20.1444 49.06 19.6569 48.7836 19.3218 48.3537C18.5753 47.4017 18.7124 45.9431 17.8746 45.0832C17.7832 44.9911 17.7222 45.0372 17.6156 45.1139C17.509 45.1907 17.4785 45.3289 17.4937 45.4671C17.509 45.5899 17.5699 45.7127 17.6308 45.8202C17.8746 46.2962 18.7124 47.2482 18.4078 47.8316C18.2859 48.0773 17.9355 48.108 17.6765 48.062C17.25 47.9852 16.8539 47.7549 16.5645 47.4324C16.3207 47.1714 16.1379 46.849 15.8637 46.634C15.6352 46.4651 15.361 46.3883 15.0715 46.3116C14.904 46.2655 14.7059 46.2348 14.5688 46.3423C14.3251 46.4958 14.4013 46.895 14.6298 47.0793C14.843 47.2635 15.1477 47.3096 15.4219 47.4017C15.818 47.5245 16.1836 47.7549 16.4883 48.0466C16.534 48.0927 16.5797 48.1387 16.6406 48.1387C16.7016 48.1387 16.7625 48.0619 16.732 48.0159" stroke="#96B6DC" stroke-width="0.537709" stroke-miterlimit="10" stroke-linecap="round" stroke-linejoin="round"/>
        <path d="M32.621 10.9046C32.6058 11.0121 32.5905 11.1196 32.5143 11.2117C32.4534 11.3038 32.3163 11.3499 32.2249 11.2885C32.1944 11.2731 32.164 11.2271 32.1335 11.1964C31.8288 10.7357 31.7984 10.1676 31.7831 9.61486C31.7679 9.33849 31.7679 9.06211 31.7527 8.78573C31.7374 8.50935 31.7679 8.17156 32.0116 8.04872C32.3011 7.91053 32.5448 8.03337 32.7124 8.24833C32.7581 8.30975 33.1694 8.83179 33.1694 8.8625C33.2151 8.24833 32.7581 7.71093 32.5753 7.11211C32.362 6.3751 32.6362 5.51526 33.2456 5.05463C33.4589 4.88573 33.794 4.77825 33.9768 4.99321C34.0377 5.06998 34.0682 5.16211 34.0834 5.25424C34.251 5.88376 34.4338 6.45187 34.6623 7.03534C34.8147 7.40384 34.9822 7.80305 34.8756 8.18691C34.7842 8.52471 34.4948 8.80108 34.4948 9.15423C34.4948 9.33849 34.5709 9.49203 34.6319 9.66093C34.7994 10.1062 34.9061 10.5822 34.8451 11.0582C34.769 11.703 34.4338 12.2712 34.1291 12.8393C33.7635 13.5302 33.4284 14.2365 33.1542 14.9582C33.0932 15.1271 33.0018 15.3113 32.8343 15.342C32.7276 15.3574 32.621 15.3113 32.5143 15.2499C32.1335 15.0349 31.7374 14.8046 31.5394 14.4208C31.4175 14.1905 31.3718 13.9294 31.3261 13.6684C31.2499 13.2078 31.1585 12.7164 31.2956 12.2712C31.3261 12.179 31.3718 12.0716 31.4784 12.0562C31.5241 12.0408 31.5851 12.0716 31.6156 12.0869C31.8745 12.2558 31.8288 12.6397 31.7527 12.9468C31.6308 13.4534 31.4937 13.9601 31.3718 14.4668C31.4023 14.3133 31.4327 14.1444 31.4632 13.9908" stroke="#96B6DC" stroke-width="0.537709" stroke-miterlimit="10" stroke-linecap="round" stroke-linejoin="round"/>
        <path d="M24.5775 3.16589C24.3185 3.25802 24.0748 3.38085 23.8463 3.50369C23.2978 3.81077 22.8104 4.24069 22.5362 4.79345C22.2467 5.3462 22.201 6.0525 22.5057 6.5899C22.9018 7.32691 23.8463 7.634 24.6537 7.48045C25.4611 7.32691 26.1618 6.77415 26.695 6.14463C27.0301 5.74542 27.3348 5.26943 27.4262 4.74738C27.5176 4.22534 27.3653 3.62652 26.954 3.30408C26.7864 3.18124 26.6036 3.10447 26.4056 3.04306C25.6439 2.84345 24.7908 3.08912 24.1662 3.58046C23.5416 4.0718 23.1303 4.8088 22.9018 5.57652C22.7951 5.96038 22.719 6.35959 22.7799 6.74345C22.9018 7.54187 23.6178 8.18675 24.4099 8.32494C25.2021 8.46313 26.0399 8.1714 26.6493 7.634C27.2434 7.11195 27.67 6.34423 27.609 5.54581" stroke="#96B6DC" stroke-width="0.537709" stroke-miterlimit="10" stroke-linecap="round" stroke-linejoin="round"/>
        <path d="M30.1988 26.5353C30.0312 24.3396 29.7113 22.1593 29.2695 20.0097C29.1781 19.5491 29.0714 19.0117 29.3914 18.6125C30.214 18.8735 30.4425 22.1286 30.5796 22.927C30.8386 24.5699 30.9604 26.2436 30.869 27.9172C30.5339 33.7058 27.609 39.2487 28.1269 45.0219" stroke="#96B6DC" stroke-width="0.537709" stroke-miterlimit="10" stroke-linecap="round" stroke-linejoin="round"/>
        <path d="M54.0399 35.8247L53.7731 35.791C53.7367 36.0798 53.5056 36.3164 53.1693 36.4273C52.8326 36.5382 52.4591 36.4976 52.21 36.3039C52.0548 36.1816 51.9306 36.0266 51.7869 35.8471C51.7317 35.7783 51.6737 35.7058 51.6099 35.6302C51.3988 35.38 51.1269 35.1045 50.7263 35.0237C50.2951 34.9368 49.9423 35.0615 49.6469 35.2631C49.4053 35.428 49.1873 35.6559 48.9915 35.8604C48.9596 35.8938 48.9283 35.9265 48.8976 35.9582C48.6653 36.1981 48.4571 36.3929 48.226 36.5014C48.0118 36.6019 47.7646 36.634 47.4325 36.51C47.0098 36.3465 46.6822 35.9127 46.6452 35.4647L46.6452 35.4647L46.6449 35.462C46.6269 35.2684 46.6532 35.0727 46.6841 34.8417C46.6865 34.8237 46.6889 34.8056 46.6914 34.7872C46.7233 34.5465 46.7569 34.2658 46.7029 33.981C46.6669 33.7658 46.5955 33.5701 46.4924 33.3793C46.4055 33.2151 46.2963 33.0489 46.1961 32.8965C46.1499 32.8262 46.1057 32.7588 46.0664 32.6959C45.9328 32.482 45.8314 32.2845 45.7877 32.0712C45.6906 31.58 45.9474 31.0301 46.376 30.6926L46.376 30.6927L46.38 30.6894C46.816 30.3323 47.3723 30.1587 47.9753 30.0219L47.9159 29.7597M54.0399 35.8247L53.7731 35.7916C53.7767 35.7624 53.7685 35.6945 53.7083 35.5734C53.6509 35.4578 53.5613 35.3236 53.4475 35.1731C53.3344 35.0236 53.2044 34.8672 53.0697 34.7057L53.0498 34.6818C52.923 34.5299 52.7925 34.3736 52.6766 34.2228C52.5553 34.0651 52.442 33.9034 52.3617 33.7484C52.2848 33.6001 52.2176 33.4199 52.239 33.237C52.2639 33.0243 52.3989 32.8703 52.5933 32.782C52.7712 32.7013 53.0078 32.6692 53.2934 32.6692H53.3035L53.3035 32.6694C53.3514 32.6712 53.3981 32.6734 53.4438 32.6755C53.6113 32.6834 53.7639 32.6905 53.9098 32.6746C54.0883 32.6552 54.2029 32.6051 54.2769 32.5182L54.2781 32.5168C54.3576 32.4246 54.385 32.2886 54.343 32.1234C54.3005 31.9564 54.1934 31.7943 54.0606 31.6939C53.9153 31.5841 53.7376 31.5109 53.5282 31.4495C53.4238 31.419 53.3159 31.3925 53.2021 31.3651C53.1923 31.3627 53.1825 31.3604 53.1725 31.358C53.0702 31.3334 52.963 31.3076 52.8579 31.2784C52.2504 31.1194 51.9853 30.6401 51.8942 30.1505C51.8049 29.6708 51.8696 29.1364 51.9478 28.7418C51.9769 28.5842 52.011 28.4262 52.0442 28.2721C52.0467 28.2607 52.0491 28.2493 52.0516 28.2379C52.0876 28.0709 52.1223 27.9081 52.1508 27.7459C52.2078 27.4212 52.2376 27.1122 52.2036 26.8111C52.1709 26.5212 52.0524 26.2282 51.8747 26.0071C51.6978 25.787 51.4761 25.6533 51.2337 25.6366L51.2317 25.6365C50.9425 25.6145 50.6745 25.7592 50.456 26.0303C50.2366 26.3027 50.0911 26.6774 50.0574 27.0354C50.0433 27.1995 50.0414 27.3723 50.0402 27.5572C50.0401 27.5683 50.04 27.5794 50.0399 27.5907C50.0389 27.7626 50.0378 27.9449 50.0255 28.1237C49.9995 28.5032 49.9215 28.911 49.6499 29.2512C49.4321 29.5276 49.1372 29.6885 48.8439 29.7954C48.597 29.8855 48.3304 29.9439 48.094 29.9957C48.0532 30.0047 48.0133 30.0134 47.9746 30.0221L47.9159 29.7597M54.0399 35.8247C54.0805 35.4972 53.6659 35.0005 53.2573 34.5109C52.5931 33.715 51.9446 32.9381 53.2934 32.9381L47.337 36.7613C48.1935 37.0819 48.6962 36.5573 49.1889 36.0432C49.6163 35.5971 50.0363 35.1589 50.6732 35.2873C51.0555 35.3644 51.3059 35.6771 51.5598 35.9943C51.7106 36.1827 51.8626 36.3726 52.0442 36.5156C52.7145 37.0377 53.9332 36.6692 54.0399 35.8247ZM47.9159 29.7597C47.3065 29.8979 46.6972 30.0822 46.2097 30.4814L49.7896 27.0113C49.7735 27.1979 49.7723 27.3921 49.7711 27.5869C49.7677 28.1294 49.7643 28.6774 49.4393 29.0841C49.115 29.4962 48.5559 29.619 48.0397 29.7324C47.9981 29.7415 47.9568 29.7506 47.9159 29.7597Z" fill="#546B9E" fill-opacity="0.35" stroke="#96B6DC" stroke-width="0.537709"/>
        <path d="M44.2444 60.2535C44.7776 57.2133 45.9049 54.1271 47.1693 51.3326C48.0529 49.3826 49.1345 47.4787 50.7188 46.0354C52.2879 44.5921 54.4358 43.6554 56.5534 43.9165C57.2693 44.0086 58.1224 44.4846 57.9853 45.1909C57.9396 45.3905 57.833 45.544 57.7111 45.6976C55.426 48.5688 50.2465 47.4787 48.0833 50.4421C49.3782 47.5401 52.6839 46.2503 55.6698 45.2369" stroke="#96B6DC" stroke-width="0.537709" stroke-miterlimit="10" stroke-linecap="round" stroke-linejoin="round"/>
        <path d="M40.0551 60.6064C39.6133 60.5758 39.1715 60.5606 38.7297 60.5606" stroke="#96B6DC" stroke-width="0.537709" stroke-miterlimit="10" stroke-linecap="round" stroke-linejoin="round"/>
        <path d="M50.6121 32.4466C49.7895 32.2316 50.4903 31.0954 50.993 31.8017C51.3738 32.3545 50.8863 33.1375 50.2465 32.7383C49.6676 32.3852 49.5762 31.6175 49.4087 31.0187C49.2258 30.3584 48.9669 29.7289 48.6165 29.1454C48.129 28.3316 46.697 26.2281 45.5393 26.7041C44.153 27.2722 45.067 29.345 45.7678 30.0974C46.8494 31.2643 48.4337 32.1242 49.82 32.8458C48.4489 33.5982 46.9408 34.6883 46.3771 36.2084C46.1029 36.7765 46.1029 37.8513 46.7123 37.6978C48.5403 37.2372 49.6067 35.2411 50.0942 33.4446M50.0942 33.4446C49.8504 34.3352 50.1246 35.1336 50.0942 33.4446ZM50.0942 33.4446C50.0637 35.2411 50.6731 37.0836 52.3488 38.0049C53.1105 38.312 54.3292 38.312 54.4815 37.3907C54.9385 35.2411 52.6535 34.0127 51.1453 32.8305M51.1453 32.8305C52.0593 33.3832 52.0746 32.6001 51.1453 32.8305ZM51.1453 32.8305C52.0746 32.6001 52.9886 32.247 53.8417 31.7864C54.4968 31.4332 55.3194 30.9879 55.5784 30.2202C56.203 28.4084 53.5675 29.2376 52.8363 29.6675C52.0898 30.1127 51.3891 30.7423 51.0082 31.5253C51.8613 29.8057 52.6992 27.5179 52.5011 25.5679C52.3488 24.9537 52.0441 24.186 51.4348 24.4931C50.6731 24.8002 50.3684 25.7214 50.216 26.6427C50.0637 28.1781 49.6067 29.8671 50.1551 31.4486M50.1551 31.4486C49.1954 31.2643 49.82 30.297 50.1551 31.4486ZM50.1551 31.4486C48.6927 31.249 47.1693 31.0954 45.6459 31.249C45.1889 31.4025 44.5795 31.249 44.2748 31.8631C43.9702 32.3238 43.9702 33.0915 44.7319 33.3986C46.5599 34.0127 48.388 33.0915 50.1399 32.8305M50.1399 32.8305C49.0735 33.1068 49.6981 37.836 50.1399 32.8305ZM50.1399 32.8305C49.6067 37.5442 49.4544 42.3041 47.931 46.9104C46.2552 51.3631 44.5795 55.5088 43.6655 60.1151C43.9702 60.7293 44.7319 60.2686 45.3412 60.4222C45.4936 60.4222 45.7982 60.5757 45.6459 60.7293C43.9702 61.3434 42.2944 60.7293 40.6187 60.6678" stroke="#96B6DC" stroke-width="0.537709" stroke-miterlimit="10" stroke-linecap="round" stroke-linejoin="round"/>
    </g>
    <path d="M60 61.9552C73.1962 59.5227 86.6469 58.0599 99.9652 56.4991C112.312 55.0521 124.618 53.9669 137.058 54.1326C144.788 54.2356 152.643 54.5942 160.156 56.5693C162.939 57.3009 165.728 58.328 168.441 59.2903" stroke="#96B6DC" stroke-width="0.537709" stroke-linecap="round"/>
    <path d="M68.428 17.987C68.428 18.653 68.59 19.247 68.914 19.769C69.256 20.273 69.67 20.714 70.156 21.092C70.66 21.47 71.335 21.92 72.181 22.442C73.099 23.018 73.819 23.513 74.341 23.927C74.881 24.341 75.331 24.854 75.691 25.466C76.069 26.06 76.258 26.762 76.258 27.572C76.258 28.49 76.015 29.309 75.529 30.029C75.061 30.749 74.386 31.316 73.504 31.73C72.64 32.126 71.65 32.324 70.534 32.324C69.778 32.324 68.995 32.225 68.185 32.027C67.393 31.829 66.79 31.586 66.376 31.298C66.214 31.19 66.124 31.019 66.106 30.785L65.944 26.681V26.654C65.944 26.582 65.989 26.546 66.079 26.546C66.169 26.528 66.223 26.555 66.241 26.627C66.835 28.121 67.51 29.345 68.266 30.299C69.04 31.253 70.021 31.73 71.209 31.73C71.983 31.73 72.631 31.523 73.153 31.109C73.675 30.677 73.936 29.966 73.936 28.976C73.936 28.184 73.756 27.491 73.396 26.897C73.054 26.303 72.622 25.808 72.1 25.412C71.596 25.016 70.903 24.53 70.021 23.954C69.157 23.396 68.482 22.928 67.996 22.55C67.51 22.154 67.096 21.677 66.754 21.119C66.412 20.543 66.241 19.877 66.241 19.121C66.241 18.185 66.502 17.393 67.024 16.745C67.546 16.097 68.221 15.62 69.049 15.314C69.895 14.99 70.777 14.828 71.695 14.828C72.307 14.828 72.919 14.891 73.531 15.017C74.143 15.125 74.656 15.269 75.07 15.449C75.232 15.503 75.34 15.575 75.394 15.665C75.448 15.737 75.475 15.836 75.475 15.962L75.556 19.634C75.556 19.688 75.502 19.733 75.394 19.769C75.304 19.787 75.25 19.76 75.232 19.688C74.872 18.59 74.386 17.6 73.774 16.718C73.18 15.818 72.28 15.368 71.074 15.368C70.264 15.368 69.616 15.602 69.13 16.07C68.662 16.538 68.428 17.177 68.428 17.987Z" fill="#96B6DC"/>
    <path d="M89.1866 21.578C89.2226 21.578 89.2406 21.632 89.2406 21.74C89.2406 21.848 89.2226 21.902 89.1866 21.902C88.6826 21.902 88.2416 22.082 87.8636 22.442C87.5036 22.802 87.1526 23.378 86.8106 24.17L83.4626 32C83.4266 32.09 83.3366 32.135 83.1926 32.135C83.0306 32.135 82.9226 32.09 82.8686 32L78.8726 23.819C78.4946 23.027 78.1706 22.514 77.9006 22.28C77.6306 22.028 77.2976 21.902 76.9016 21.902C76.8476 21.902 76.8206 21.848 76.8206 21.74C76.8206 21.632 76.8476 21.578 76.9016 21.578C77.2256 21.578 77.4866 21.587 77.6846 21.605L79.2506 21.632L81.2486 21.605C81.5366 21.587 81.9326 21.578 82.4366 21.578C82.4906 21.578 82.5176 21.632 82.5176 21.74C82.5176 21.848 82.4906 21.902 82.4366 21.902C81.3746 21.902 80.8436 22.109 80.8436 22.523C80.8436 22.631 80.8886 22.775 80.9786 22.955L84.0836 29.057L86.1356 24.116C86.2616 23.81 86.3246 23.513 86.3246 23.225C86.3246 22.793 86.1626 22.469 85.8386 22.253C85.5326 22.019 85.0736 21.902 84.4616 21.902C84.4256 21.902 84.4076 21.848 84.4076 21.74C84.4076 21.632 84.4256 21.578 84.4616 21.578C84.9476 21.578 85.3166 21.587 85.5686 21.605L87.1886 21.632L88.2416 21.605C88.4396 21.587 88.7546 21.578 89.1866 21.578Z" fill="#96B6DC"/>
    <path d="M89.6314 32C89.5774 32 89.5504 31.946 89.5504 31.838C89.5504 31.73 89.5774 31.676 89.6314 31.676C90.2434 31.676 90.6484 31.55 90.8464 31.298C91.0444 31.046 91.1434 30.551 91.1434 29.813V24.899C91.1434 24.287 91.0804 23.846 90.9544 23.576C90.8284 23.288 90.6124 23.144 90.3064 23.144C90.0364 23.144 89.6854 23.252 89.2534 23.468H89.2264C89.1544 23.468 89.1004 23.423 89.0644 23.333C89.0284 23.243 89.0374 23.18 89.0914 23.144L92.9794 21.335L93.0604 21.308C93.1324 21.308 93.2044 21.353 93.2764 21.443C93.3664 21.515 93.4114 21.578 93.4114 21.632V22.199C93.3754 22.955 93.3574 23.846 93.3574 24.872V29.813C93.3574 30.551 93.4564 31.046 93.6544 31.298C93.8704 31.55 94.2844 31.676 94.8964 31.676C94.9504 31.676 94.9774 31.73 94.9774 31.838C94.9774 31.946 94.9504 32 94.8964 32C94.4464 32 94.0864 31.991 93.8164 31.973L92.2504 31.946L90.6844 31.973C90.4324 31.991 90.0814 32 89.6314 32ZM92.1154 18.473C91.6474 18.473 91.2784 18.347 91.0084 18.095C90.7564 17.843 90.6304 17.483 90.6304 17.015C90.6304 16.565 90.7564 16.223 91.0084 15.989C91.2784 15.737 91.6474 15.611 92.1154 15.611C92.5654 15.611 92.9164 15.737 93.1684 15.989C93.4204 16.223 93.5464 16.565 93.5464 17.015C93.5464 17.483 93.4204 17.843 93.1684 18.095C92.9344 18.347 92.5834 18.473 92.1154 18.473Z" fill="#96B6DC"/>
    <path d="M103.715 30.272C103.769 30.272 103.814 30.308 103.85 30.38C103.904 30.452 103.904 30.506 103.85 30.542C103.184 31.172 102.554 31.631 101.96 31.919C101.366 32.189 100.736 32.324 100.07 32.324C99.2963 32.324 98.6393 32.144 98.0993 31.784C97.5773 31.406 97.3163 30.785 97.3163 29.921V23.819C97.3163 23.225 97.2173 22.829 97.0193 22.631C96.8393 22.433 96.4793 22.334 95.9393 22.334C95.9213 22.334 95.8943 22.316 95.8583 22.28C95.8403 22.226 95.8313 22.172 95.8313 22.118C95.8313 22.064 95.8403 22.019 95.8583 21.983C95.8943 21.929 95.9213 21.902 95.9393 21.902C97.6313 21.83 98.6933 21.101 99.1253 19.715C99.1613 19.643 99.2333 19.607 99.3413 19.607C99.4673 19.607 99.5303 19.643 99.5303 19.715V21.848C100.376 21.83 101.573 21.74 103.121 21.578C103.157 21.578 103.193 21.65 103.229 21.794C103.283 21.92 103.31 22.064 103.31 22.226C103.31 22.388 103.274 22.55 103.202 22.712C103.148 22.874 103.085 22.946 103.013 22.928C102.005 22.694 100.844 22.55 99.5303 22.496V29.03C99.5303 29.732 99.7013 30.254 100.043 30.596C100.403 30.92 100.898 31.082 101.528 31.082C102.284 31.082 102.995 30.821 103.661 30.299L103.715 30.272Z" fill="#96B6DC"/>
    <path d="M104.631 32C104.577 32 104.55 31.946 104.55 31.838C104.55 31.73 104.577 31.676 104.631 31.676C105.225 31.676 105.63 31.55 105.846 31.298C106.062 31.028 106.17 30.533 106.17 29.813V16.016C106.17 15.386 106.107 14.936 105.981 14.666C105.873 14.378 105.666 14.234 105.36 14.234C105.09 14.234 104.73 14.342 104.28 14.558H104.253C104.181 14.558 104.127 14.513 104.091 14.423C104.055 14.333 104.055 14.27 104.091 14.234L107.898 12.452L108.006 12.425C108.078 12.425 108.159 12.461 108.249 12.533C108.357 12.605 108.411 12.668 108.411 12.722V29.813C108.411 30.551 108.51 31.046 108.708 31.298C108.906 31.55 109.311 31.676 109.923 31.676C109.977 31.676 110.004 31.73 110.004 31.838C110.004 31.946 109.977 32 109.923 32C109.491 32 109.14 31.991 108.87 31.973L107.277 31.946L105.711 31.973C105.441 31.991 105.081 32 104.631 32Z" fill="#96B6DC"/>
    <path d="M121.523 30.542C121.595 30.542 121.64 30.587 121.659 30.677C121.677 30.749 121.649 30.803 121.577 30.839L118.797 32.162C118.725 32.198 118.644 32.216 118.554 32.216C118.302 32.216 118.059 32.072 117.825 31.784C117.59 31.496 117.429 31.109 117.339 30.623L115.934 31.379C114.89 31.919 114 32.189 113.262 32.189C112.686 32.189 112.236 32.045 111.911 31.757C111.605 31.451 111.452 31.037 111.452 30.515C111.452 29.957 111.651 29.543 112.047 29.273C112.443 28.985 113.198 28.652 114.314 28.274L117.257 27.275V25.115C117.257 24.017 117.132 23.216 116.88 22.712C116.628 22.19 116.25 21.929 115.745 21.929C114.773 21.929 114.215 22.64 114.071 24.062C113.981 24.962 113.522 25.412 112.694 25.412C111.921 25.412 111.534 25.079 111.534 24.413C111.534 23.945 111.821 23.477 112.397 23.009C112.992 22.523 113.702 22.127 114.53 21.821C115.358 21.497 116.097 21.335 116.744 21.335C117.555 21.335 118.202 21.587 118.688 22.091C119.193 22.577 119.444 23.315 119.444 24.305V29.084C119.444 29.642 119.535 30.065 119.715 30.353C119.895 30.641 120.156 30.785 120.498 30.785C120.768 30.785 121.092 30.704 121.47 30.542H121.523ZM117.285 30.191C117.266 30.119 117.257 29.984 117.257 29.786V27.707L115.34 28.409C114.873 28.589 114.539 28.787 114.341 29.003C114.143 29.201 114.044 29.453 114.044 29.759C114.044 30.137 114.153 30.434 114.368 30.65C114.584 30.866 114.864 30.974 115.206 30.974C115.583 30.974 116.007 30.857 116.474 30.623L117.285 30.191Z" fill="#96B6DC"/>
    <path d="M134.643 31.676C134.697 31.676 134.724 31.73 134.724 31.838C134.724 31.946 134.697 32 134.643 32C134.193 32 133.842 31.991 133.59 31.973L132.024 31.946L130.485 31.973C130.215 31.991 129.855 32 129.405 32C129.351 32 129.324 31.946 129.324 31.838C129.324 31.73 129.351 31.676 129.405 31.676C130.017 31.676 130.422 31.55 130.62 31.298C130.818 31.046 130.917 30.551 130.917 29.813V25.763C130.917 24.755 130.728 24.017 130.35 23.549C129.99 23.063 129.414 22.82 128.622 22.82C128.154 22.82 127.677 22.928 127.191 23.144C126.705 23.36 126.264 23.648 125.868 24.008V29.813C125.868 30.551 125.967 31.046 126.165 31.298C126.363 31.55 126.768 31.676 127.38 31.676C127.434 31.676 127.461 31.73 127.461 31.838C127.461 31.946 127.434 32 127.38 32C126.93 32 126.579 31.991 126.327 31.973L124.761 31.946L123.195 31.973C122.943 31.991 122.592 32 122.142 32C122.088 32 122.061 31.946 122.061 31.838C122.061 31.73 122.088 31.676 122.142 31.676C122.754 31.676 123.159 31.55 123.357 31.298C123.555 31.046 123.654 30.551 123.654 29.813V24.656C123.654 24.08 123.582 23.657 123.438 23.387C123.312 23.117 123.096 22.982 122.79 22.982C122.52 22.982 122.07 23.117 121.44 23.387H121.413C121.341 23.387 121.287 23.342 121.251 23.252C121.215 23.162 121.224 23.108 121.278 23.09L124.815 21.362C124.923 21.326 124.986 21.308 125.004 21.308C125.184 21.308 125.364 21.515 125.544 21.929C125.742 22.325 125.85 22.847 125.868 23.495C127.128 22.001 128.496 21.254 129.972 21.254C130.962 21.254 131.736 21.56 132.294 22.172C132.852 22.766 133.131 23.576 133.131 24.602V29.813C133.131 30.551 133.23 31.046 133.428 31.298C133.626 31.55 134.031 31.676 134.643 31.676Z" fill="#96B6DC"/>
    <path d="M145.914 30.542C145.986 30.542 146.031 30.587 146.049 30.677C146.067 30.749 146.04 30.803 145.968 30.839L143.187 32.162C143.115 32.198 143.034 32.216 142.944 32.216C142.692 32.216 142.449 32.072 142.215 31.784C141.981 31.496 141.819 31.109 141.729 30.623L140.325 31.379C139.281 31.919 138.39 32.189 137.652 32.189C137.076 32.189 136.626 32.045 136.302 31.757C135.996 31.451 135.843 31.037 135.843 30.515C135.843 29.957 136.041 29.543 136.437 29.273C136.833 28.985 137.589 28.652 138.705 28.274L141.648 27.275V25.115C141.648 24.017 141.522 23.216 141.27 22.712C141.018 22.19 140.64 21.929 140.136 21.929C139.164 21.929 138.606 22.64 138.462 24.062C138.372 24.962 137.913 25.412 137.085 25.412C136.311 25.412 135.924 25.079 135.924 24.413C135.924 23.945 136.212 23.477 136.788 23.009C137.382 22.523 138.093 22.127 138.921 21.821C139.749 21.497 140.487 21.335 141.135 21.335C141.945 21.335 142.593 21.587 143.079 22.091C143.583 22.577 143.835 23.315 143.835 24.305V29.084C143.835 29.642 143.925 30.065 144.105 30.353C144.285 30.641 144.546 30.785 144.888 30.785C145.158 30.785 145.482 30.704 145.86 30.542H145.914ZM141.675 30.191C141.657 30.119 141.648 29.984 141.648 29.786V27.707L139.731 28.409C139.263 28.589 138.93 28.787 138.732 29.003C138.534 29.201 138.435 29.453 138.435 29.759C138.435 30.137 138.543 30.434 138.759 30.65C138.975 30.866 139.254 30.974 139.596 30.974C139.974 30.974 140.397 30.857 140.865 30.623L141.675 30.191Z" fill="#96B6DC"/>
    <path d="M161.096 32.324C159.422 32.324 157.928 31.937 156.614 31.163C155.318 30.371 154.31 29.309 153.59 27.977C152.888 26.627 152.537 25.16 152.537 23.576C152.537 21.722 153.005 20.138 153.941 18.824C154.877 17.492 156.074 16.493 157.532 15.827C159.008 15.161 160.511 14.828 162.041 14.828C163.751 14.828 165.254 15.233 166.55 16.043C167.846 16.835 168.836 17.888 169.52 19.202C170.222 20.516 170.573 21.911 170.573 23.387C170.573 25.025 170.141 26.528 169.277 27.896C168.413 29.264 167.252 30.344 165.794 31.136C164.354 31.928 162.788 32.324 161.096 32.324ZM162.014 31.676C163.094 31.676 164.057 31.388 164.903 30.812C165.767 30.218 166.442 29.354 166.928 28.22C167.432 27.086 167.684 25.736 167.684 24.17C167.684 22.514 167.405 21.029 166.847 19.715C166.307 18.401 165.524 17.375 164.498 16.637C163.49 15.899 162.302 15.53 160.934 15.53C159.188 15.53 157.829 16.16 156.857 17.42C155.903 18.662 155.426 20.39 155.426 22.604C155.426 24.314 155.705 25.862 156.263 27.248C156.839 28.634 157.622 29.723 158.612 30.515C159.62 31.289 160.754 31.676 162.014 31.676Z" fill="#96B6DC"/>
    <path d="M172.345 32C172.291 32 172.264 31.946 172.264 31.838C172.264 31.73 172.291 31.676 172.345 31.676C172.939 31.676 173.344 31.55 173.56 31.298C173.776 31.028 173.884 30.533 173.884 29.813V16.016C173.884 15.386 173.821 14.936 173.695 14.666C173.587 14.378 173.38 14.234 173.074 14.234C172.804 14.234 172.444 14.342 171.994 14.558H171.967C171.895 14.558 171.841 14.513 171.805 14.423C171.769 14.333 171.769 14.27 171.805 14.234L175.612 12.452L175.72 12.425C175.792 12.425 175.873 12.461 175.963 12.533C176.071 12.605 176.125 12.668 176.125 12.722V29.813C176.125 30.551 176.224 31.046 176.422 31.298C176.62 31.55 177.025 31.676 177.637 31.676C177.691 31.676 177.718 31.73 177.718 31.838C177.718 31.946 177.691 32 177.637 32C177.205 32 176.854 31.991 176.584 31.973L174.991 31.946L173.425 31.973C173.155 31.991 172.795 32 172.345 32Z" fill="#96B6DC"/>
    <path d="M179.14 32C179.086 32 179.059 31.946 179.059 31.838C179.059 31.73 179.086 31.676 179.14 31.676C179.752 31.676 180.157 31.55 180.355 31.298C180.553 31.046 180.652 30.551 180.652 29.813V24.899C180.652 24.287 180.589 23.846 180.463 23.576C180.337 23.288 180.121 23.144 179.815 23.144C179.545 23.144 179.194 23.252 178.762 23.468H178.735C178.663 23.468 178.609 23.423 178.573 23.333C178.537 23.243 178.546 23.18 178.6 23.144L182.488 21.335L182.569 21.308C182.641 21.308 182.713 21.353 182.785 21.443C182.875 21.515 182.92 21.578 182.92 21.632V22.199C182.884 22.955 182.866 23.846 182.866 24.872V29.813C182.866 30.551 182.965 31.046 183.163 31.298C183.379 31.55 183.793 31.676 184.405 31.676C184.459 31.676 184.486 31.73 184.486 31.838C184.486 31.946 184.459 32 184.405 32C183.955 32 183.595 31.991 183.325 31.973L181.759 31.946L180.193 31.973C179.941 31.991 179.59 32 179.14 32ZM181.624 18.473C181.156 18.473 180.787 18.347 180.517 18.095C180.265 17.843 180.139 17.483 180.139 17.015C180.139 16.565 180.265 16.223 180.517 15.989C180.787 15.737 181.156 15.611 181.624 15.611C182.074 15.611 182.425 15.737 182.677 15.989C182.929 16.223 183.055 16.565 183.055 17.015C183.055 17.483 182.929 17.843 182.677 18.095C182.443 18.347 182.092 18.473 181.624 18.473Z" fill="#96B6DC"/>
    <path d="M185.771 32C185.717 32 185.69 31.946 185.69 31.838C185.69 31.73 185.717 31.676 185.771 31.676C186.383 31.676 186.788 31.55 186.986 31.298C187.184 31.046 187.283 30.551 187.283 29.813V24.899C187.283 24.287 187.22 23.846 187.094 23.576C186.968 23.288 186.752 23.144 186.446 23.144C186.176 23.144 185.825 23.252 185.393 23.468H185.366C185.294 23.468 185.24 23.423 185.204 23.333C185.168 23.243 185.177 23.18 185.231 23.144L189.119 21.335L189.2 21.308C189.272 21.308 189.344 21.353 189.416 21.443C189.506 21.515 189.551 21.578 189.551 21.632V22.199C189.515 22.955 189.497 23.846 189.497 24.872V29.813C189.497 30.551 189.596 31.046 189.794 31.298C190.01 31.55 190.424 31.676 191.036 31.676C191.09 31.676 191.117 31.73 191.117 31.838C191.117 31.946 191.09 32 191.036 32C190.586 32 190.226 31.991 189.956 31.973L188.39 31.946L186.824 31.973C186.572 31.991 186.221 32 185.771 32ZM188.255 18.473C187.787 18.473 187.418 18.347 187.148 18.095C186.896 17.843 186.77 17.483 186.77 17.015C186.77 16.565 186.896 16.223 187.148 15.989C187.418 15.737 187.787 15.611 188.255 15.611C188.705 15.611 189.056 15.737 189.308 15.989C189.56 16.223 189.686 16.565 189.686 17.015C189.686 17.483 189.56 17.843 189.308 18.095C189.074 18.347 188.723 18.473 188.255 18.473Z" fill="#96B6DC"/>
    <path d="M204.823 31.676C204.877 31.676 204.904 31.73 204.904 31.838C204.904 31.946 204.877 32 204.823 32C204.373 32 204.022 31.991 203.77 31.973L202.204 31.946L200.665 31.973C200.395 31.991 200.035 32 199.585 32C199.531 32 199.504 31.946 199.504 31.838C199.504 31.73 199.531 31.676 199.585 31.676C200.197 31.676 200.602 31.55 200.8 31.298C200.998 31.046 201.097 30.551 201.097 29.813V25.763C201.097 24.755 200.908 24.017 200.53 23.549C200.17 23.063 199.594 22.82 198.802 22.82C198.334 22.82 197.857 22.928 197.371 23.144C196.885 23.36 196.444 23.648 196.048 24.008V29.813C196.048 30.551 196.147 31.046 196.345 31.298C196.543 31.55 196.948 31.676 197.56 31.676C197.614 31.676 197.641 31.73 197.641 31.838C197.641 31.946 197.614 32 197.56 32C197.11 32 196.759 31.991 196.507 31.973L194.941 31.946L193.375 31.973C193.123 31.991 192.772 32 192.322 32C192.268 32 192.241 31.946 192.241 31.838C192.241 31.73 192.268 31.676 192.322 31.676C192.934 31.676 193.339 31.55 193.537 31.298C193.735 31.046 193.834 30.551 193.834 29.813V24.656C193.834 24.08 193.762 23.657 193.618 23.387C193.492 23.117 193.276 22.982 192.97 22.982C192.7 22.982 192.25 23.117 191.62 23.387H191.593C191.521 23.387 191.467 23.342 191.431 23.252C191.395 23.162 191.404 23.108 191.458 23.09L194.995 21.362C195.103 21.326 195.166 21.308 195.184 21.308C195.364 21.308 195.544 21.515 195.724 21.929C195.922 22.325 196.03 22.847 196.048 23.495C197.308 22.001 198.676 21.254 200.152 21.254C201.142 21.254 201.916 21.56 202.474 22.172C203.032 22.766 203.311 23.576 203.311 24.602V29.813C203.311 30.551 203.41 31.046 203.608 31.298C203.806 31.55 204.211 31.676 204.823 31.676Z" fill="#96B6DC"/>
    <path d="M216.634 21.578C216.67 21.578 216.688 21.632 216.688 21.74C216.688 21.848 216.67 21.902 216.634 21.902C216.094 21.902 215.626 22.118 215.23 22.55C214.852 22.982 214.501 23.639 214.177 24.521L211.072 32.756C210.424 34.484 209.803 35.843 209.209 36.833C208.615 37.823 208.012 38.525 207.4 38.939C206.788 39.371 206.113 39.587 205.375 39.587C204.871 39.587 204.484 39.479 204.214 39.263C203.926 39.065 203.782 38.759 203.782 38.345C203.782 37.985 203.899 37.706 204.133 37.508C204.349 37.328 204.619 37.238 204.943 37.238C205.159 37.238 205.339 37.265 205.483 37.319C205.645 37.391 205.807 37.481 205.969 37.589C206.149 37.697 206.302 37.778 206.428 37.832C206.572 37.886 206.743 37.913 206.941 37.913C207.355 37.913 207.733 37.742 208.075 37.4C208.435 37.076 208.804 36.527 209.182 35.753C209.578 34.979 210.046 33.881 210.586 32.459L206.32 23.819C205.924 23.045 205.609 22.532 205.375 22.28C205.159 22.028 204.889 21.902 204.565 21.902C204.511 21.902 204.484 21.848 204.484 21.74C204.484 21.632 204.511 21.578 204.565 21.578C205.033 21.578 205.393 21.587 205.645 21.605L206.698 21.632L208.534 21.605C208.804 21.587 209.173 21.578 209.641 21.578C209.695 21.578 209.722 21.632 209.722 21.74C209.722 21.848 209.695 21.902 209.641 21.902C209.155 21.902 208.795 21.947 208.561 22.037C208.345 22.109 208.237 22.253 208.237 22.469C208.237 22.631 208.282 22.793 208.372 22.955L211.666 29.759L213.475 24.521C213.637 24.053 213.718 23.657 213.718 23.333C213.718 22.379 213.115 21.902 211.909 21.902C211.873 21.902 211.855 21.848 211.855 21.74C211.855 21.632 211.873 21.578 211.909 21.578C212.395 21.578 212.764 21.587 213.016 21.605L214.636 21.632L215.689 21.605C215.887 21.587 216.202 21.578 216.634 21.578Z" fill="#96B6DC"/>
    <path d="M229.154 31.676C229.208 31.676 229.235 31.73 229.235 31.838C229.235 31.946 229.208 32 229.154 32C228.704 32 228.344 31.991 228.074 31.973L226.535 31.946L224.51 31.973C224.204 31.991 223.79 32 223.268 32C223.232 32 223.214 31.946 223.214 31.838C223.214 31.73 223.232 31.676 223.268 31.676C224.006 31.676 224.375 31.487 224.375 31.109C224.375 30.947 224.303 30.767 224.159 30.569L221 26.411L220.19 27.113V29.813C220.19 30.551 220.289 31.046 220.487 31.298C220.703 31.55 221.117 31.676 221.729 31.676C221.801 31.676 221.837 31.73 221.837 31.838C221.837 31.946 221.801 32 221.729 32C221.279 32 220.919 31.991 220.649 31.973L219.11 31.946L217.571 31.973C217.301 31.991 216.941 32 216.491 32C216.437 32 216.41 31.946 216.41 31.838C216.41 31.73 216.437 31.676 216.491 31.676C217.085 31.676 217.49 31.55 217.706 31.298C217.922 31.028 218.03 30.533 218.03 29.813V16.016C218.03 15.386 217.967 14.936 217.841 14.666C217.715 14.378 217.508 14.234 217.22 14.234C216.95 14.234 216.581 14.342 216.113 14.558H216.086C216.032 14.558 215.978 14.513 215.924 14.423C215.888 14.315 215.897 14.252 215.951 14.234L219.704 12.452L219.839 12.425C219.911 12.425 219.983 12.461 220.055 12.533C220.145 12.605 220.19 12.668 220.19 12.722V26.546L223.079 23.954C223.583 23.522 223.835 23.099 223.835 22.685C223.835 22.451 223.727 22.262 223.511 22.118C223.313 21.974 223.025 21.902 222.647 21.902C222.593 21.902 222.566 21.848 222.566 21.74C222.566 21.632 222.593 21.578 222.647 21.578C223.151 21.578 223.547 21.587 223.835 21.605L225.887 21.632L227.804 21.605C228.056 21.587 228.398 21.578 228.83 21.578C228.884 21.578 228.911 21.632 228.911 21.74C228.911 21.848 228.884 21.902 228.83 21.902C228.092 21.902 227.255 22.091 226.319 22.469C225.383 22.829 224.519 23.36 223.727 24.062L222.566 25.061L226.157 29.813C226.661 30.479 227.156 30.956 227.642 31.244C228.128 31.532 228.632 31.676 229.154 31.676Z" fill="#96B6DC"/>
    <path d="M74.605 39.5V50H73.375L67.075 42.17V50H65.575V39.5H66.805L73.105 47.33V39.5H74.605Z" fill="#96B6DC"/>
    <path d="M82.0979 50.12C80.6979 50.12 79.6079 49.72 78.8279 48.92C78.0479 48.12 77.6579 46.97 77.6579 45.47V39.5H79.1579V45.41C79.1579 47.66 80.1429 48.785 82.1129 48.785C83.0729 48.785 83.8079 48.51 84.3179 47.96C84.8279 47.4 85.0829 46.55 85.0829 45.41V39.5H86.5379V45.47C86.5379 46.98 86.1479 48.135 85.3679 48.935C84.5879 49.725 83.4979 50.12 82.0979 50.12Z" fill="#96B6DC"/>
    <path d="M91.5077 40.805H87.9077V39.5H96.5927V40.805H92.9927V50H91.5077V40.805Z" fill="#96B6DC"/>
    <path d="M105.246 50L102.981 46.775C102.701 46.795 102.481 46.805 102.321 46.805H99.7264V50H98.2264V39.5H102.321C103.681 39.5 104.751 39.825 105.531 40.475C106.311 41.125 106.701 42.02 106.701 43.16C106.701 43.97 106.501 44.66 106.101 45.23C105.701 45.8 105.131 46.215 104.391 46.475L106.881 50H105.246ZM102.276 45.53C103.226 45.53 103.951 45.325 104.451 44.915C104.951 44.505 105.201 43.92 105.201 43.16C105.201 42.4 104.951 41.82 104.451 41.42C103.951 41.01 103.226 40.805 102.276 40.805H99.7264V45.53H102.276Z" fill="#96B6DC"/>
    <path d="M109.125 39.5H110.625V50H109.125V39.5Z" fill="#96B6DC"/>
    <path d="M115.853 40.805H112.253V39.5H120.938V40.805H117.338V50H115.853V40.805Z" fill="#96B6DC"/>
    <path d="M122.572 39.5H124.072V50H122.572V39.5Z" fill="#96B6DC"/>
    <path d="M131.956 50.12C130.896 50.12 129.941 49.89 129.091 49.43C128.241 48.96 127.571 48.315 127.081 47.495C126.601 46.675 126.361 45.76 126.361 44.75C126.361 43.74 126.601 42.825 127.081 42.005C127.571 41.185 128.241 40.545 129.091 40.085C129.941 39.615 130.896 39.38 131.956 39.38C133.006 39.38 133.956 39.615 134.806 40.085C135.656 40.545 136.321 41.185 136.801 42.005C137.281 42.815 137.521 43.73 137.521 44.75C137.521 45.77 137.281 46.69 136.801 47.51C136.321 48.32 135.656 48.96 134.806 49.43C133.956 49.89 133.006 50.12 131.956 50.12ZM131.956 48.785C132.726 48.785 133.416 48.61 134.026 48.26C134.646 47.91 135.131 47.43 135.481 46.82C135.841 46.2 136.021 45.51 136.021 44.75C136.021 43.99 135.841 43.305 135.481 42.695C135.131 42.075 134.646 41.59 134.026 41.24C133.416 40.89 132.726 40.715 131.956 40.715C131.186 40.715 130.486 40.89 129.856 41.24C129.236 41.59 128.746 42.075 128.386 42.695C128.036 43.305 127.861 43.99 127.861 44.75C127.861 45.51 128.036 46.2 128.386 46.82C128.746 47.43 129.236 47.91 129.856 48.26C130.486 48.61 131.186 48.785 131.956 48.785Z" fill="#96B6DC"/>
    <path d="M148.843 39.5V50H147.613L141.313 42.17V50H139.813V39.5H141.043L147.343 47.33V39.5H148.843Z" fill="#96B6DC"/>
    <path d="M151.986 39.5H153.486V50H151.986V39.5Z" fill="#96B6DC"/>
    <path d="M159.69 50.12C158.9 50.12 158.135 50 157.395 49.76C156.665 49.51 156.09 49.19 155.67 48.8L156.225 47.63C156.625 47.99 157.135 48.285 157.755 48.515C158.385 48.735 159.03 48.845 159.69 48.845C160.56 48.845 161.21 48.7 161.64 48.41C162.07 48.11 162.285 47.715 162.285 47.225C162.285 46.865 162.165 46.575 161.925 46.355C161.695 46.125 161.405 45.95 161.055 45.83C160.715 45.71 160.23 45.575 159.6 45.425C158.81 45.235 158.17 45.045 157.68 44.855C157.2 44.665 156.785 44.375 156.435 43.985C156.095 43.585 155.925 43.05 155.925 42.38C155.925 41.82 156.07 41.315 156.36 40.865C156.66 40.415 157.11 40.055 157.71 39.785C158.31 39.515 159.055 39.38 159.945 39.38C160.565 39.38 161.175 39.46 161.775 39.62C162.375 39.78 162.89 40.01 163.32 40.31L162.825 41.51C162.385 41.23 161.915 41.02 161.415 40.88C160.915 40.73 160.425 40.655 159.945 40.655C159.095 40.655 158.455 40.81 158.025 41.12C157.605 41.43 157.395 41.83 157.395 42.32C157.395 42.68 157.515 42.975 157.755 43.205C157.995 43.425 158.29 43.6 158.64 43.73C159 43.85 159.485 43.98 160.095 44.12C160.885 44.31 161.52 44.5 162 44.69C162.48 44.88 162.89 45.17 163.23 45.56C163.58 45.95 163.755 46.475 163.755 47.135C163.755 47.685 163.605 48.19 163.305 48.65C163.005 49.1 162.55 49.46 161.94 49.73C161.33 49.99 160.58 50.12 159.69 50.12Z" fill="#96B6DC"/>
    <path d="M167.885 40.805H164.285V39.5H172.97V40.805H169.37V50H167.885V40.805Z" fill="#96B6DC"/>
    <defs>
        <filter id="filter0_d_166_155" x="0.580456" y="0.731079" width="59.8395" height="64.8395" filterUnits="userSpaceOnUse" color-interpolation-filters="sRGB">
            <feFlood flood-opacity="0" result="BackgroundImageFix"/>
            <feColorMatrix in="SourceAlpha" type="matrix" values="0 0 0 0 0 0 0 0 0 0 0 0 0 0 0 0 0 0 127 0" result="hardAlpha"/>
            <feOffset dy="2.15084"/>
            <feGaussianBlur stdDeviation="1.07542"/>
            <feComposite in2="hardAlpha" operator="out"/>
            <feColorMatrix type="matrix" values="0 0 0 0 0 0 0 0 0 0 0 0 0 0 0 0 0 0 0.03 0"/>
            <feBlend mode="normal" in2="BackgroundImageFix" result="effect1_dropShadow_166_155"/>
            <feBlend mode="normal" in="SourceGraphic" in2="effect1_dropShadow_166_155" result="shape"/>
        </filter>
    </defs>
</svg>
