<svg width="26" height="22" viewBox="0 0 26 22" fill="none"
    xmlns="http://www.w3.org/2000/svg">
    <path fill-rule="evenodd" clip-rule="evenodd" d="M22.7213 0.537456C23.0302 0.407445 23.3683 0.362605 23.7004 0.407603C24.0325 0.452601 24.3465 0.585792 24.6097 0.793313C24.8728 1.00083 25.0756 1.2751 25.1968 1.58756C25.318 1.90002 25.3532 2.23926 25.2988 2.56996L22.4638 19.7662C22.1888 21.425 20.3688 22.3762 18.8476 21.55C17.5751 20.8587 15.6851 19.7937 13.9851 18.6825C13.1351 18.1262 10.5313 16.345 10.8513 15.0775C11.1263 13.9937 15.5013 9.92121 18.0013 7.49996C18.9826 6.54871 18.5351 5.99996 17.3763 6.87496C14.4988 9.04746 9.87881 12.3512 8.35131 13.2812C7.00381 14.1012 6.3013 14.2412 5.4613 14.1012C3.9288 13.8462 2.50756 13.4512 1.34756 12.97C-0.219945 12.32 -0.143695 10.165 1.34631 9.53746L22.7213 0.537456Z" fill="currentColor"/>
</svg>
