<svg width="28" height="21" viewBox="0 0 28 21" fill="none"
    xmlns="http://www.w3.org/2000/svg">
    <path d="M28 10.9344C28 11.0031 28 11.0813 27.9969 11.1719C27.9938 11.425 27.9875 11.7094 27.9813 12.0125C27.9563 12.8844 27.9125 13.7531 27.8438 14.5719C27.75 15.7 27.6125 16.6406 27.425 17.3469C27.2271 18.0839 26.8393 18.7561 26.3002 19.2963C25.7612 19.8364 25.0898 20.2256 24.3531 20.425C23.4688 20.6625 21.7375 20.8094 19.3 20.9C18.1406 20.9438 16.9 20.9719 15.6594 20.9875C15.225 20.9938 14.8219 20.9969 14.4594 21H13.5406C13.1781 20.9969 12.775 20.9938 12.3406 20.9875C11.1 20.9719 9.85938 20.9438 8.7 20.9C6.2625 20.8063 4.52812 20.6594 3.64687 20.425C2.91 20.2261 2.23834 19.8371 1.6992 19.2968C1.16006 18.7566 0.772375 18.0841 0.575 17.3469C0.384375 16.6406 0.25 15.7 0.15625 14.5719C0.0875 13.7531 0.04375 12.8844 0.01875 12.0125C0.00937495 11.7094 0.00624995 11.425 0.00312495 11.1719C0.00312495 11.0813 0 11.0031 0 10.9344V10.7594C0 10.6906 -4.77303e-08 10.6125 0.00312495 10.5219C0.00624995 10.2687 0.0125 9.98438 0.01875 9.68125C0.04375 8.80938 0.0875 7.94063 0.15625 7.12187C0.25 5.99375 0.3875 5.05312 0.575 4.34687C0.975 2.85 2.15 1.66875 3.64687 1.26875C4.52812 1.03125 6.2625 0.884377 8.7 0.793751C9.85938 0.75 11.1 0.721874 12.3406 0.706249C12.775 0.699999 13.1781 0.696873 13.5406 0.693748H14.4594C14.8219 0.696873 15.225 0.699999 15.6594 0.706249C16.9 0.721874 18.1406 0.75 19.3 0.793751C21.7375 0.887501 23.4719 1.03437 24.3531 1.26875C25.85 1.66875 27.025 2.84687 27.425 4.34687C27.6156 5.05312 27.75 5.99375 27.8438 7.12187C27.9125 7.94063 27.9563 8.80938 27.9813 9.68125C27.9906 9.98438 27.9938 10.2687 27.9969 10.5219C27.9969 10.6125 28 10.6906 28 10.7594V10.9344ZM25.75 10.7719C25.75 10.7062 25.75 10.6344 25.7469 10.55C25.7438 10.3063 25.7375 10.0375 25.7313 9.74687C25.7094 8.91562 25.6656 8.08438 25.6 7.3125C25.5156 6.30625 25.3969 5.48125 25.25 4.92812C25.0562 4.20625 24.4875 3.63437 23.7687 3.44375C23.1125 3.26875 21.4594 3.12813 19.2125 3.04375C18.075 3 16.85 2.97187 15.6281 2.95625C15.2 2.95 14.8031 2.94688 14.4469 2.94688H13.5531L12.3719 2.95625C11.15 2.97187 9.92813 3 8.7875 3.04375C6.54063 3.13125 4.88437 3.26875 4.23125 3.44375C3.5125 3.6375 2.94375 4.20625 2.75 4.92812C2.60313 5.48125 2.48438 6.30625 2.4 7.3125C2.33438 8.08438 2.29375 8.91562 2.26875 9.74687C2.25938 10.0375 2.25625 10.3094 2.25313 10.55C2.25313 10.6344 2.25 10.7094 2.25 10.7719V10.9219C2.25 10.9875 2.25 11.0594 2.25313 11.1438C2.25625 11.3875 2.2625 11.6563 2.26875 11.9469C2.29063 12.7781 2.33438 13.6094 2.4 14.3813C2.48438 15.3875 2.60313 16.2125 2.75 16.7656C2.94375 17.4875 3.5125 18.0594 4.23125 18.25C4.8875 18.425 6.54063 18.5656 8.7875 18.65C9.925 18.6938 11.15 18.7219 12.3719 18.7375C12.8 18.7438 13.1969 18.7469 13.5531 18.7469H14.4469L15.6281 18.7375C16.85 18.7219 18.0719 18.6938 19.2125 18.65C21.4594 18.5625 23.1156 18.425 23.7687 18.25C24.4875 18.0563 25.0562 17.4875 25.25 16.7656C25.3969 16.2125 25.5156 15.3875 25.6 14.3813C25.6656 13.6094 25.7063 12.7781 25.7313 11.9469C25.7406 11.6563 25.7438 11.3844 25.7469 11.1438C25.7469 11.0594 25.75 10.9844 25.75 10.9219V10.7719ZM11.2188 6.65938L18.4688 10.8781L11.2188 15.0344V6.65938Z" fill="currentColor"/>
</svg>
