<?xml version="1.0" encoding="utf-8"?><svg xmlns="http://www.w3.org/2000/svg" xmlns:xlink="http://www.w3.org/1999/xlink"><symbol fill="none" viewBox="0 0 11 10" id="arrow-up" xmlns="http://www.w3.org/2000/svg"><path d="M9.429 1.192l-8 8m8-8V8.05m0-6.857H2.57" stroke="currentColor" stroke-width="1.2" stroke-linecap="round" stroke-linejoin="round"/></symbol><symbol fill="none" viewBox="0 0 29 18" id="burger" xmlns="http://www.w3.org/2000/svg"><path d="M2 2h25M2 9h25M13.214 16h13.357" stroke="currentColor" stroke-width="2.5" stroke-linecap="round"/></symbol><symbol fill="none" viewBox="0 0 28 28" id="close" xmlns="http://www.w3.org/2000/svg"><path fill-rule="evenodd" clip-rule="evenodd" d="M14.023 16.665L24.778 27.42a1.901 1.901 0 002.688-2.689L16.712 13.977 27.466 3.222A1.9 1.9 0 0024.778.534L14.023 11.288 3.27.534A1.901 1.901 0 00.582 3.222l10.753 10.755L.58 24.73A1.9 1.9 0 103.27 27.42l10.754-10.755z" fill="currentColor"/></symbol><symbol fill="none" viewBox="0 0 15 12" id="email" xmlns="http://www.w3.org/2000/svg"><path d="M2.5 0C1.837 0 1.201.253.732.703A2.352 2.352 0 000 2.4v.241l7.5 3.877L15 2.642V2.4c0-.637-.263-1.247-.732-1.697A2.554 2.554 0 0012.5 0h-10zM15 4.004L7.796 7.728a.646.646 0 01-.592 0L0 4.004V9.6c0 .636.263 1.247.732 1.697.47.45 1.105.703 1.768.703h10c.663 0 1.299-.253 1.768-.703.469-.45.732-1.06.732-1.697V4.004z" fill="currentColor"/></symbol><symbol fill="none" viewBox="0 0 15 32" id="fb" xmlns="http://www.w3.org/2000/svg"><path d="M3.24 6.198v4.407H0v5.385h3.24V32h6.661V15.99h4.469s.421-2.582.624-5.408H9.927v-3.68c0-.553.727-1.292 1.447-1.292H15V0h-4.935C3.077 0 3.24 5.392 3.24 6.198z" fill="currentColor"/></symbol><symbol fill="none" viewBox="0 0 42 37" id="heart" xmlns="http://www.w3.org/2000/svg"><path d="M21 7.06l-1.805-1.794C14.955 1.055 7.183 2.508 4.378 7.803c-1.318 2.49-1.615 6.087.79 10.676C7.486 22.898 12.306 28.19 21 33.955c8.695-5.765 13.513-11.057 15.832-15.476 2.405-4.592 2.11-8.185.791-10.676-2.806-5.295-10.578-6.75-14.817-2.539L21 7.061zm0 29.829c-38.617-24.667-11.89-43.92-.443-33.736.151.135.299.274.443.417.142-.144.29-.282.444-.414C32.888-7.035 59.618 12.219 21 36.889z" fill="currentColor"/></symbol><symbol fill="none" viewBox="0 0 28 28" id="insta" xmlns="http://www.w3.org/2000/svg"><path d="M21.12 5.281a1.6 1.6 0 100 3.2 1.6 1.6 0 000-3.2zm6.134 3.227a10.122 10.122 0 00-.614-3.24 6.587 6.587 0 00-1.546-2.36 6.267 6.267 0 00-2.36-1.533 9.733 9.733 0 00-3.24-.627C18.08.668 17.627.668 14 .668c-3.626 0-4.08 0-5.493.08a9.733 9.733 0 00-3.24.627 6.373 6.373 0 00-2.36 1.533 6.267 6.267 0 00-1.533 2.36 9.733 9.733 0 00-.627 3.24c-.08 1.413-.08 1.867-.08 5.493 0 3.627 0 4.08.08 5.494a9.733 9.733 0 00.627 3.24c.325.892.85 1.7 1.533 2.36a6.374 6.374 0 002.36 1.533 9.732 9.732 0 003.24.627c1.413.08 1.867.08 5.493.08 3.627 0 4.08 0 5.494-.08a9.732 9.732 0 003.24-.627c.892-.326 1.7-.85 2.36-1.533a6.466 6.466 0 001.546-2.36c.38-1.04.588-2.134.614-3.24 0-1.414.08-1.867.08-5.494 0-3.626 0-4.08-.08-5.493zm-2.4 10.827a7.48 7.48 0 01-.454 2.48 4.08 4.08 0 01-1 1.533c-.432.44-.955.782-1.533 1a7.48 7.48 0 01-2.48.453c-1.333.067-1.827.08-5.333.08-3.507 0-4 0-5.334-.08a7.64 7.64 0 01-2.586-.4 4.36 4.36 0 01-1.467-1 4 4 0 01-.987-1.533 7.387 7.387 0 01-.533-2.533c0-1.334-.08-1.827-.08-5.334 0-3.506 0-4 .08-5.333a7.387 7.387 0 01.467-2.533 4 4 0 011.053-1.467 4.187 4.187 0 011.467-1.067 7.64 7.64 0 012.533-.453c1.333 0 1.827-.08 5.333-.08 3.507 0 4 0 5.334.08a7.48 7.48 0 012.48.453A4.08 4.08 0 0123.4 4.668c.437.41.779.91 1 1.467a7.48 7.48 0 01.454 2.533c.066 1.333.08 1.827.08 5.333 0 3.507-.014 4-.08 5.334zM14 7.16a6.84 6.84 0 106.854 6.84A6.827 6.827 0 0014 7.161zm0 11.28a4.44 4.44 0 110-8.88 4.44 4.44 0 010 8.88z" fill="currentColor"/></symbol><symbol fill="none" viewBox="0 0 230 68" id="logo" xmlns="http://www.w3.org/2000/svg"><g filter="url(#hfilter0_d_166_155)" stroke="#96B6DC" stroke-width=".538"><path d="M8.353 39.28l-.051-.265c-.09.018-.459.043-.963.05a16.68 16.68 0 01-1.617-.048 6.45 6.45 0 01-.711-.096 1.578 1.578 0 01-.455-.15l.003-.002a.914.914 0 01.17-.144h0l.006-.005a.947.947 0 01.308-.132l.137-.036a4.41 4.41 0 00.304-.085c.295-.1.71-.329.802-.768h0l.002-.009c.07-.4-.155-.687-.375-.885-.11-.1-.235-.191-.347-.273h-.001a4.255 4.255 0 01-.307-.239c-.41-.377-.528-1.059-.274-1.57h0l.002-.005c.24-.509.81-.845 1.408-.859.375-.006.743.11 1.125.29.247.116.479.247.72.383.143.082.29.165.445.248h0l.005.003.014.006c.082.042.24.123.431.097.295-.035.422-.29.473-.425.134-.297.203-.613.261-.906l.021-.105c.052-.264.1-.507.18-.738a1.55 1.55 0 01.427-.645c.186-.16.38-.227.566-.193h0l.004.001c.246.041.464.258.676.562.44.66.669 1.45.669 2.259 0 .531-.1 1.067-.272 1.595-.629 1.485-2.254 2.514-3.837 2.824l.051.264zm0 0c1.646-.323 3.367-1.398 4.037-2.995l-7.647-1.781c-.305.614-.168 1.428.335 1.889.098.087.21.169.323.251.344.253.69.507.622.9-.061.292-.35.476-.625.568-.085.029-.175.052-.265.074-.2.05-.4.102-.558.218-1.569 1.09 3.306.967 3.778.875zm-3.831-.535l.004.004-.004-.004z" fill="#546B9E" fill-opacity=".35"/><path d="M9.892 38.128a37.328 37.328 0 01-5.24-.046c-.442-.031-.914-.092-1.265-.354-.35-.26-.533-.829-.244-1.166.168-.215.457-.277.716-.323a9.1 9.1 0 016.2 1.106c-.593.491-1.523.215-2.102-.292s-.96-1.213-1.553-1.704c-.549-.461-1.295-.799-1.448-1.49-.167-.829.747-1.566 1.585-1.49.837.078 1.523.692 2.071 1.337a10.828 10.828 0 011.98 3.608 9.543 9.543 0 01-.532-4.284c.106-1.029.594-2.242 1.614-2.364.762-.093 1.478.568 1.691 1.305.214.752.061 1.55-.167 2.303a13.584 13.584 0 01-1.6 3.44c-.487.752-1.401 1.535-2.178 1.09-.64-.37-.594-1.46.015-1.874.61-.43 1.523-.2 1.996.369.32.368.487.906.335 1.382-.152.476-.686.813-1.158.66-.472-.154-.67-.86-.32-1.183.046-.03 1.204 2.472 1.325 2.749.35.829.534 1.735.747 2.61.244.967-.259 2.011-.29 2.994-.03 1.413.686 2.78.67 4.192-.273-.676-.548-1.367-.837-2.042-.229-.553-.457-1.106-.838-1.566-.442-.522-1.051-.906-1.539-1.398-.563-.568-1.28-.798-2.056-.906-.488-.06-.975-.076-1.447.077-.457.154-.884.492-1.051.952-.168.46-.031 1.044.365 1.305.35.23.808.2 1.234.139 1.234-.17 2.575-.906 3.763-.4.685.292 1.462 1.229 1.493 2.012-.503-.184-.64-.799-.945-1.229-.213-.307-.518-.537-.822-.767-.336-.261-.686-.522-1.082-.676-.518-.215-1.097-.246-1.645-.276" stroke-miterlimit="10" stroke-linecap="round" stroke-linejoin="round"/><path d="M54.235 56.237h0l.004.005c.327.422.353.908.021 1.242-.226.229-.581.38-1 .536a17.28 17.28 0 01-4.874 1.013h0-.002c-1.033.076-2.13.037-3.112-.168-.984-.205-1.824-.573-2.373-1.133-.443-.46-.671-1.024-.85-1.61v-.001c-.234-.764-.185-1.628.23-2.284.407-.642 1.197-1.137 2.555-1.115 2.555.045 5.783 1.37 7.85 2.413.644.324 1.228.668 1.551 1.102z"/><path d="M30.532 51.473l.002-.001c1.848-1.096 3.454-2.687 4.948-4.269 0 0 0 0 0 0l.032-.034c.455-.473.864-.9 1.397-1.115h0l.005-.002c.54-.231 1.178-.154 1.503.22.217.255.287.608.35 1.03.196 1.369.31 3.048.126 4.64-.186 1.598-.669 3.072-1.638 4.07h0c-1.967 2.028-4.596 3.31-7.352 3.84h0c-3.859.74-7.866.137-11.76-.721h0c-1.646-.353-3.265-.79-4.52-1.79-2.433-1.945-2.253-5.236-1.524-8.102l.03-.104c.033-.117.054-.19.103-.264h0l.002-.004a.492.492 0 01.506-.209.937.937 0 00.175.045c.08.01.186.007.29-.053a.412.412 0 00.126-.11.598.598 0 00.06-.097 2.815 2.815 0 00.16-.402c.022-.065.043-.124.066-.184.066-.166.136-.29.252-.386.253-.205.698-.308 1.098-.338 1.044-.07 2.04.477 3.021 1.095a87.37 87.37 0 014.693 3.184h0l.157.113c.58.42 1.197.867 1.91 1.106h.002c1.044.346 2.184.243 3.203-.041.927-.254 1.771-.649 2.577-1.117zm-7.54-.17l-.151-.109 5.042 1.136c-.99.277-2.072.369-3.046.047-.674-.227-1.257-.648-1.845-1.073z" fill="#546B9E" fill-opacity=".25"/><path d="M29.695 2.328h0l.003.001c.816.29 1.573.69 1.904 1.368.248.528.19 1.186.07 1.844-.404 2.03-1.412 4.008-3.11 5.09l-.001.001c-1.322.848-2.844.717-4.19 0-1.351-.718-2.49-2.01-2.999-3.412-.435-1.198-.397-2.47.32-3.518.814-1.18 2.227-1.872 3.662-2.035 1.452-.162 2.93.147 4.341.661z" fill="#546B9E" fill-opacity=".3"/><path d="M14.039 28.516h0c.82 3.538 1.823 7.015 2.993 10.43l-2.993-10.43zm0 0c-.627-2.697-1.065-5.599.316-7.827m-.316 7.827l.316-7.827m0 0c1.425-2.285 4.325-3.147 7.104-3.67h0a82.466 82.466 0 018.23-1.148l-15.334 4.818zm23.675-4.48h0c-1.138-.407-2.606-.548-4.11-.558-1.5-.01-3.012.112-4.23.22l8.34.338zm0 0c1.18.422 1.745 1.463 1.966 2.737.22 1.276.082 2.726-.1 3.846-.362 2.231-.964 4.41-1.614 6.587-.153.513-.31 1.025-.465 1.539-.506 1.664-1.014 3.336-1.435 5.026h0c-.233.945-.37 1.904-.487 2.847l-.077.623c-.088.731-.175 1.45-.297 2.155-.312 1.802-.848 3.47-2.181 4.88m4.69-30.24L20.602 47.601m0 0c1.31.983 3.595 1.29 5.164 1.382 2.788.169 5.834-.307 7.769-2.35l-.195-.184s0 0 0 0M20.6 47.601c-1.09-.81-1.625-2.41-2.093-3.81-.127-.378-.248-.742-.374-1.072l2.468 4.882zM33.34 46.45c-1.852 1.954-4.796 2.433-7.558 2.266h0a16.59 16.59 0 01-2.636-.351c-.916-.208-1.772-.52-2.383-.978h-.001c-.633-.47-1.078-1.246-1.443-2.133-.18-.44-.338-.898-.49-1.347-.021-.067-.044-.133-.066-.2-.126-.377-.25-.748-.378-1.084v-.001a95.818 95.818 0 01-1.353-3.675L33.34 46.45z"/><path d="M35.348 41.014c.152.66.716 1.136 1.097 1.72.837 1.274.64 2.933.609 4.453-.046 1.52.244 3.3 1.554 4.069.38.215.823.337 1.097.675.61.753-.061 1.843-.762 2.488-3.245 2.978-7.693 4.145-11.989 5.067-2.316.49-4.662.952-7.008.798-3.26-.215-5.773-1.797-7.952-4.176-.29-.323-.579-.66-.7-1.075-.183-.584-.03-1.213.045-1.827.092-.691.015-1.398.092-2.089.091-.721.29-1.443.502-2.118.061-.185.122-.369.244-.507s.335-.215.503-.123c.579.292.746 1.889.93 2.441.304.968.639 1.92 1.08 2.81.717 1.459 1.783 2.825 3.215 3.593.838.46 1.782.691 2.712.875 4.006.768 8.287.568 11.958-1.228a14.87 14.87 0 005.759-5.036c-.534-.799-1.798-.645-2.514 0-.716.63-1.066 1.566-1.569 2.38a6.617 6.617 0 01-3.793 2.81 6.578 6.578 0 01-4.677-.477c-1.02-.521-1.92-1.305-3.001-1.658-.93-.307-1.92-.276-2.895-.337-.975-.062-1.995-.261-2.726-.906-.457-.4-.747-.952-1.036-1.49-.914-1.673-1.813-3.332-2.727-5.005-.107-.2-.214-.4-.198-.614.015-.308.259-.553.487-.738a9.054 9.054 0 012.392-1.443c.35-.153.762-.276 1.127-.123.244.093.427.308.67.415.244.092.61 0 .625-.261.03-.353-.533-.445-.655-.768-.152-.368 1.082-1.336 1.31-1.704.488-.783.762-1.705.869-2.626.213-1.858-.244-3.67-.35-5.512a68.084 68.084 0 00-.55-5.589c-.121-.89-.274-1.781-.41-2.656-.29-.03-.427.338-.458.63-.137 1.566.412 3.1.793 4.636.624 2.564.746 5.236.365 7.846-.228.062-.396-.2-.487-.43-1.524-3.93-2.453-8.076-3.367-12.19-.259-1.137-.503-2.273-.594-3.425-.091-1.167.03-2.441.807-3.316.533-.6 1.31-.906 2.057-1.183 1.858-.66 3.778-1.12 5.59-1.888 1.692-.722 2.088-1.889 2.636-3.563.03-.092.061-.184.03-.276-.076-.23-.395-.215-.64-.2-1.096.062-1.98-.875-2.604-1.78-.945-1.367-1.737-2.918-1.798-4.576-.046-.983.213-2.058.99-2.672.777-.614 1.89-.614 2.864-.384.366.092.747.2 1.036.43.29.23.488.553.61.906.29.875-.016 1.904-.655 2.564-.655.66-1.6.968-2.514.922-1.082-.046-2.148-.584-2.727-1.49-.594-.906-.624-2.18 0-3.055.7-.983 2.011-1.29 3.2-1.305.73-.016 1.507.076 2.04.568.838.783.625 2.288.031 3.163-.29.43-.762.767-1.264.798a.638.638 0 01-.335-.046c-.153-.077-.244-.261-.29-.43-.122-.476-.015-.983.198-1.428.213-.445.533-.814.853-1.182.625-.706 1.295-1.397 2.133-1.781C28.066 1 29.04.97 29.97 1.016c.716.046 1.448.139 2.102.415.549.23 1.036.599 1.417 1.06.366.43.625.936.853 1.458.122.292.244.599.35.89.107.277.199.553.168.845-.045.476-.441.83-.883 1.029-.427.2-.899.276-1.326.476-.716.322-.929.967-1.294 1.597-.412.69-.808 1.397-1.036 2.18-.229.768-.26 1.628.06 2.365.214.476.564.89.945 1.243A8.872 8.872 0 0036.521 17c.93.092 1.95.062 2.727.599.914.63 1.218 1.812 1.447 2.902.244 1.151.564 2.303.61 3.47.06 1.29.06 2.58.03 3.87-.03 1.381-.076 2.748-.122 4.13-.076 2.073.06 4.1.183 6.172.015.138.015.307-.092.415a.445.445 0 01-.244.107 16.83 16.83 0 01-.837.215c-.183.046-.366.092-.549.077a.507.507 0 01-.426-.307c-.076-.23.076-.476.29-.584.212-.107.456-.092.685-.077.457.047.929.17 1.218.538.183.23.26.522.32.814.823 3.531 1.021 7.14 1.904 10.656.168.675.35 1.35.564 2.026.168.569.29 1.014.823 1.367.259.184.563.292.868.368.686.185 1.325.108 2.011.2.594.077 1.143.307 1.721.476a7.456 7.456 0 002.255.292c.137 0 .32.03.335.169 0 .03 0 .076-.015.107a.581.581 0 01-.442.353l2.88.737c.258.062.761.369.487.691.137.092.38.184.426.338a.352.352 0 01-.167.4c-.137.091-.29.107-.442.107-.152 0-.442-.077-.579-.031-.137.046-.152.215-.304.276-.107.046-.229.046-.35.046-1.052-.015-2.027-.506-3.063-.706.076.23.35.323.579.384.442.123.868.292 1.28.476.06.03.137.077.167.138.076.2-.243.307-.396.323-.213.015-.411-.077-.61-.123-1.005-.2-1.95-.553-2.94-.753-.898-.184-1.812-.383-2.711-.537-.853-.138-1.645-.2-2.407-.676a4.256 4.256 0 01-.533-.383c-.396-.338-.716-.737-1.051-1.137-.35-.43-.32-.86-.396-1.382-.107-.721-.366-1.428-.61-2.118-1.157-3.21-2.407-6.403-3.382-9.674-.396-1.35-.73-2.733-.716-4.145.016-1.29.305-2.58.229-3.87-.061-.92-.305-1.842-.122-2.748.168-.783.655-1.459.853-2.226.29-1.075.015-2.304.564-3.256.274-.476.731-.86.777-1.397-.274-.077-.518.23-.64.492-.884 1.919-.99 4.1-1.539 6.157-.579 2.165-1.645 4.176-2.117 6.372-.32 1.458-.366 2.994-.99 4.345 1.157.322 1.538 1.858 1.157 3.01-.38 1.136-1.249 2.041-1.873 3.07-.93 1.52-1.326 3.317-2.21 4.868-.137.245-.304.49-.563.63-.411.23-.93.091-1.371-.062a54.554 54.554 0 01-8.47-3.67c-.488-.261-.975-.537-1.31-.967-.747-.952-.61-2.41-1.447-3.27-.092-.093-.153-.047-.26.03-.106.077-.136.215-.121.353.015.123.076.246.137.353.244.476 1.081 1.428.777 2.012-.122.245-.473.276-.732.23a1.987 1.987 0 01-1.111-.63c-.244-.26-.427-.583-.701-.798-.229-.169-.503-.246-.793-.322-.167-.046-.365-.077-.502.03-.244.154-.168.553.06.737.214.184.519.23.793.323.396.123.762.353 1.066.645.046.046.092.092.153.092.06 0 .122-.077.091-.123" stroke-miterlimit="10" stroke-linecap="round" stroke-linejoin="round"/><path d="M32.621 10.905c-.015.107-.03.215-.107.307-.06.092-.198.138-.29.077-.03-.016-.06-.062-.09-.093-.305-.46-.336-1.028-.35-1.581-.016-.277-.016-.553-.031-.83-.016-.276.015-.613.259-.736.29-.138.533-.016.7.2.046.06.457.583.457.614.046-.615-.41-1.152-.594-1.75-.213-.738.061-1.598.67-2.058.214-.17.549-.277.732-.062a.56.56 0 01.106.261c.168.63.35 1.198.58 1.781.152.369.32.768.213 1.152-.092.338-.381.614-.381.967 0 .184.076.338.137.507.167.445.274.921.213 1.397-.076.645-.411 1.213-.716 1.781-.365.691-.7 1.397-.975 2.12-.06.168-.152.352-.32.383-.106.015-.213-.03-.32-.092-.38-.215-.777-.445-.975-.83-.122-.23-.167-.49-.213-.752-.076-.46-.168-.952-.03-1.397.03-.092.076-.2.182-.215.046-.015.107.016.138.03.259.17.213.554.137.86-.122.507-.26 1.014-.381 1.52.03-.153.06-.322.091-.475M24.578 3.166a5.324 5.324 0 00-.732.338c-.548.307-1.036.737-1.31 1.29-.29.552-.335 1.259-.03 1.796.396.737 1.34 1.044 2.148.89.807-.153 1.508-.706 2.041-1.335.335-.4.64-.876.731-1.398.092-.522-.06-1.12-.472-1.443-.168-.123-.35-.2-.548-.26-.762-.2-1.615.045-2.24.536-.624.492-1.036 1.229-1.264 1.997-.107.383-.183.783-.122 1.166.122.799.838 1.444 1.63 1.582.792.138 1.63-.154 2.24-.691.593-.522 1.02-1.29.959-2.088M30.199 26.535a52.154 52.154 0 00-.93-6.525c-.09-.46-.198-.998.122-1.398.823.262 1.052 3.517 1.189 4.315.259 1.643.38 3.317.289 4.99-.335 5.789-3.26 11.332-2.742 17.105" stroke-miterlimit="10" stroke-linecap="round" stroke-linejoin="round"/><path d="M54.04 35.825l-.267-.034c-.036.289-.267.525-.604.636-.336.111-.71.07-.959-.123-.155-.122-.28-.277-.423-.457-.055-.069-.113-.141-.177-.217-.211-.25-.483-.526-.884-.606-.43-.087-.784.038-1.08.24-.24.164-.459.392-.654.596a19.65 19.65 0 01-.094.098c-.233.24-.44.435-.672.543-.214.1-.461.133-.794.009a1.28 1.28 0 01-.787-1.045h0v-.003c-.018-.194.008-.39.04-.62l.006-.055c.032-.24.066-.521.012-.806a1.91 1.91 0 00-.21-.602 6.113 6.113 0 00-.297-.482l-.13-.201c-.133-.214-.235-.411-.278-.625-.097-.491.16-1.04.588-1.378h0l.004-.004c.436-.357.992-.53 1.595-.667l-.06-.262m6.125 6.065l-.267-.033c.004-.03-.005-.098-.065-.219a2.68 2.68 0 00-.26-.4 13 13 0 00-.378-.467l-.02-.024c-.127-.152-.258-.308-.373-.46a3.311 3.311 0 01-.315-.474c-.077-.148-.144-.328-.123-.511.025-.213.16-.367.354-.455.178-.08.415-.113.7-.113h.01l.14.007c.168.007.32.014.467-.001.178-.02.293-.07.367-.157l.001-.001c.08-.092.107-.228.065-.394a.807.807 0 00-.282-.43 1.627 1.627 0 00-.533-.244 7.06 7.06 0 00-.326-.084l-.03-.007a9.305 9.305 0 01-.314-.08c-.608-.159-.873-.638-.964-1.127-.09-.48-.024-1.015.054-1.41.029-.157.063-.315.096-.469l.008-.034c.036-.167.07-.33.099-.492a3.28 3.28 0 00.053-.935 1.6 1.6 0 00-.33-.804c-.176-.22-.398-.354-.64-.37h-.002c-.29-.023-.557.122-.776.393-.22.273-.365.647-.399 1.005a6.688 6.688 0 00-.017.522v.034a8.531 8.531 0 01-.014.533c-.027.38-.105.787-.376 1.127-.218.277-.513.438-.806.544-.247.09-.514.149-.75.2l-.12.027-.058-.262m6.124 6.065c.04-.328-.374-.825-.783-1.314-.664-.796-1.312-1.573.036-1.573l-5.956 3.823c.856.32 1.36-.204 1.852-.718.427-.446.847-.884 1.484-.756.383.077.633.39.887.707.15.189.303.379.484.522.67.522 1.89.153 1.996-.691zm-6.124-6.065c-.61.138-1.219.322-1.706.721l3.58-3.47c-.017.187-.018.381-.019.576-.003.542-.007 1.09-.332 1.497-.324.412-.883.535-1.4.648l-.123.028z" fill="#546B9E" fill-opacity=".35"/><path d="M44.244 60.254c.534-3.04 1.66-6.127 2.925-8.921.884-1.95 1.966-3.854 3.55-5.298 1.569-1.443 3.717-2.38 5.834-2.118.716.092 1.57.568 1.432 1.274-.045.2-.152.353-.274.507-2.285 2.87-7.465 1.78-9.628 4.744 1.295-2.902 4.6-4.192 7.587-5.205M40.055 60.606c-.442-.03-.883-.045-1.325-.045" stroke-miterlimit="10" stroke-linecap="round" stroke-linejoin="round"/><path d="M50.612 32.447c-.823-.215-.122-1.352.381-.645.38.553-.107 1.336-.747.936-.578-.353-.67-1.12-.837-1.72a7.521 7.521 0 00-.792-1.873c-.488-.813-1.92-2.917-3.078-2.44-1.386.567-.472 2.64.229 3.392 1.081 1.167 2.666 2.027 4.052 2.749-1.371.752-2.88 1.842-3.443 3.362-.274.569-.274 1.643.335 1.49 1.828-.46 2.895-2.457 3.382-4.253m0 0c-.244.89.03 1.689 0 0zm0 0c-.03 1.796.58 3.639 2.255 4.56.762.307 1.98.307 2.133-.614.456-2.15-1.828-3.378-3.337-4.56m0 0c.914.552.93-.23 0 0zm0 0c.93-.23 1.844-.584 2.697-1.045.655-.353 1.477-.798 1.736-1.566.625-1.812-2.01-.982-2.742-.552-.746.445-1.447 1.074-1.828 1.857.853-1.72 1.691-4.007 1.493-5.957-.152-.614-.457-1.382-1.066-1.075-.762.307-1.067 1.228-1.219 2.15-.152 1.535-.61 3.224-.06 4.806m0 0c-.96-.185-.336-1.152 0 0zm0 0c-1.463-.2-2.987-.354-4.51-.2-.457.154-1.066 0-1.371.614-.305.46-.305 1.229.457 1.536 1.828.614 3.656-.307 5.408-.569m0 0c-1.066.277-.442 5.006 0 0zm0 0c-.533 4.714-.686 9.474-2.209 14.08-1.676 4.453-3.351 8.599-4.265 13.205.304.614 1.066.154 1.675.307.153 0 .457.154.305.307-1.676.614-3.352 0-5.027-.061" stroke-miterlimit="10" stroke-linecap="round" stroke-linejoin="round"/></g><path d="M60 61.955c13.196-2.432 26.647-3.895 39.965-5.456 12.347-1.447 24.653-2.532 37.093-2.366 7.73.103 15.585.461 23.098 2.436 2.783.732 5.572 1.759 8.285 2.721" stroke="#96B6DC" stroke-width=".538" stroke-linecap="round"/><path d="M68.428 17.987c0 .666.162 1.26.486 1.782.342.504.756.945 1.242 1.323.504.378 1.179.828 2.025 1.35.918.576 1.638 1.071 2.16 1.485.54.414.99.927 1.35 1.539.378.594.567 1.296.567 2.106 0 .918-.243 1.737-.729 2.457-.468.72-1.143 1.287-2.025 1.701-.864.396-1.854.594-2.97.594a9.882 9.882 0 01-2.349-.297c-.792-.198-1.395-.441-1.809-.729-.162-.108-.252-.279-.27-.513l-.162-4.104v-.027c0-.072.045-.108.135-.108.09-.018.144.009.162.081.594 1.494 1.269 2.718 2.025 3.672.774.954 1.755 1.431 2.943 1.431.774 0 1.422-.207 1.944-.621.522-.432.783-1.143.783-2.133 0-.792-.18-1.485-.54-2.079a4.92 4.92 0 00-1.296-1.485c-.504-.396-1.197-.882-2.079-1.458-.864-.558-1.539-1.026-2.025-1.404a5.608 5.608 0 01-1.242-1.431c-.342-.576-.513-1.242-.513-1.998 0-.936.261-1.728.783-2.376.522-.648 1.197-1.125 2.025-1.431a7.336 7.336 0 012.646-.486c.612 0 1.224.063 1.836.189.612.108 1.125.252 1.539.432.162.054.27.126.324.216a.485.485 0 01.081.297l.081 3.672c0 .054-.054.099-.162.135-.09.018-.144-.009-.162-.081a11.41 11.41 0 00-1.458-2.97c-.594-.9-1.494-1.35-2.7-1.35-.81 0-1.458.234-1.944.702-.468.468-.702 1.107-.702 1.917zM89.187 21.578c.036 0 .054.054.054.162 0 .108-.018.162-.054.162-.504 0-.945.18-1.323.54-.36.36-.711.936-1.053 1.728L83.463 32c-.036.09-.126.135-.27.135-.162 0-.27-.045-.324-.135l-3.996-8.181c-.378-.792-.702-1.305-.972-1.539a1.409 1.409 0 00-1-.378c-.053 0-.08-.054-.08-.162 0-.108.027-.162.08-.162.325 0 .586.009.784.027l1.566.027 1.998-.027c.288-.018.684-.027 1.188-.027.054 0 .08.054.08.162 0 .108-.026.162-.08.162-1.062 0-1.593.207-1.593.621 0 .108.045.252.135.432l3.105 6.102 2.052-4.941c.126-.306.189-.603.189-.891 0-.432-.162-.756-.486-.972-.306-.234-.765-.351-1.377-.351-.036 0-.054-.054-.054-.162 0-.108.018-.162.054-.162.486 0 .855.009 1.107.027l1.62.027 1.053-.027c.198-.018.513-.027.945-.027zM89.631 32c-.054 0-.08-.054-.08-.162 0-.108.026-.162.08-.162.612 0 1.017-.126 1.215-.378.198-.252.297-.747.297-1.485v-4.914c0-.612-.063-1.053-.189-1.323-.126-.288-.342-.432-.648-.432-.27 0-.62.108-1.053.324h-.027c-.072 0-.126-.045-.162-.135-.036-.09-.027-.153.027-.189l3.888-1.809.081-.027c.072 0 .144.045.216.135.09.072.135.135.135.189v.567a57.167 57.167 0 00-.054 2.673v4.941c0 .738.1 1.233.297 1.485.216.252.63.378 1.242.378.054 0 .081.054.081.162 0 .108-.027.162-.08.162-.45 0-.81-.009-1.08-.027l-1.567-.027-1.566.027a15.72 15.72 0 01-1.053.027zm2.484-13.527c-.468 0-.837-.126-1.107-.378-.252-.252-.378-.612-.378-1.08 0-.45.126-.792.378-1.026.27-.252.64-.378 1.107-.378.45 0 .801.126 1.053.378.252.234.378.576.378 1.026 0 .468-.126.828-.378 1.08-.234.252-.585.378-1.053.378zM103.715 30.272c.054 0 .099.036.135.108.054.072.054.126 0 .162-.666.63-1.296 1.089-1.89 1.377a4.514 4.514 0 01-1.89.405c-.774 0-1.43-.18-1.97-.54-.523-.378-.784-.999-.784-1.863v-6.102c0-.594-.099-.99-.297-1.188-.18-.198-.54-.297-1.08-.297-.018 0-.045-.018-.08-.054a.51.51 0 01-.028-.162.3.3 0 01.027-.135c.036-.054.063-.081.081-.081 1.692-.072 2.754-.801 3.186-2.187.036-.072.108-.108.216-.108.126 0 .19.036.19.108v2.133c.845-.018 2.042-.108 3.59-.27.036 0 .072.072.108.216.054.126.081.27.081.432 0 .162-.036.324-.108.486-.054.162-.117.234-.189.216-1.008-.234-2.169-.378-3.483-.432v6.534c0 .702.171 1.224.513 1.566.36.324.855.486 1.485.486.756 0 1.467-.261 2.133-.783l.054-.027zM104.631 32c-.054 0-.081-.054-.081-.162 0-.108.027-.162.081-.162.594 0 .999-.126 1.215-.378.216-.27.324-.765.324-1.485V16.016c0-.63-.063-1.08-.189-1.35-.108-.288-.315-.432-.621-.432-.27 0-.63.108-1.08.324h-.027c-.072 0-.126-.045-.162-.135-.036-.09-.036-.153 0-.189l3.807-1.782.108-.027c.072 0 .153.036.243.108.108.072.162.135.162.189v17.091c0 .738.099 1.233.297 1.485.198.252.603.378 1.215.378.054 0 .081.054.081.162 0 .108-.027.162-.081.162-.432 0-.783-.009-1.053-.027l-1.593-.027-1.566.027c-.27.018-.63.027-1.08.027zM121.523 30.542c.072 0 .117.045.136.135.018.072-.01.126-.082.162l-2.78 1.323a.536.536 0 01-.243.054c-.252 0-.495-.144-.729-.432-.235-.288-.396-.675-.486-1.161l-1.405.756c-1.044.54-1.934.81-2.672.81-.576 0-1.026-.144-1.351-.432-.306-.306-.459-.72-.459-1.242 0-.558.199-.972.595-1.242.396-.288 1.151-.621 2.267-.999l2.943-.999v-2.16c0-1.098-.125-1.899-.377-2.403-.252-.522-.63-.783-1.135-.783-.972 0-1.53.711-1.674 2.133-.09.9-.549 1.35-1.377 1.35-.773 0-1.16-.333-1.16-.999 0-.468.287-.936.863-1.404.595-.486 1.305-.882 2.133-1.188.828-.324 1.567-.486 2.214-.486.811 0 1.458.252 1.944.756.505.486.756 1.224.756 2.214v4.779c0 .558.091.981.271 1.269.18.288.441.432.783.432.27 0 .594-.081.972-.243h.053zm-4.238-.351a1.888 1.888 0 01-.028-.405v-2.079l-1.917.702c-.467.18-.801.378-.999.594-.198.198-.297.45-.297.756 0 .378.109.675.324.891.216.216.496.324.838.324.377 0 .801-.117 1.268-.351l.811-.432zM134.643 31.676c.054 0 .081.054.081.162 0 .108-.027.162-.081.162-.45 0-.801-.009-1.053-.027l-1.566-.027-1.539.027c-.27.018-.63.027-1.08.027-.054 0-.081-.054-.081-.162 0-.108.027-.162.081-.162.612 0 1.017-.126 1.215-.378.198-.252.297-.747.297-1.485v-4.05c0-1.008-.189-1.746-.567-2.214-.36-.486-.936-.729-1.728-.729-.468 0-.945.108-1.431.324a4.934 4.934 0 00-1.323.864v5.805c0 .738.099 1.233.297 1.485.198.252.603.378 1.215.378.054 0 .081.054.081.162 0 .108-.027.162-.081.162-.45 0-.801-.009-1.053-.027l-1.566-.027-1.566.027a15.72 15.72 0 01-1.053.027c-.054 0-.081-.054-.081-.162 0-.108.027-.162.081-.162.612 0 1.017-.126 1.215-.378.198-.252.297-.747.297-1.485v-5.157c0-.576-.072-.999-.216-1.269-.126-.27-.342-.405-.648-.405-.27 0-.72.135-1.35.405h-.027c-.072 0-.126-.045-.162-.135-.036-.09-.027-.144.027-.162l3.537-1.728c.108-.036.171-.054.189-.054.18 0 .36.207.54.621.198.396.306.918.324 1.566 1.26-1.494 2.628-2.241 4.104-2.241.99 0 1.764.306 2.322.918.558.594.837 1.404.837 2.43v5.211c0 .738.099 1.233.297 1.485.198.252.603.378 1.215.378zM145.914 30.542c.072 0 .117.045.135.135.018.072-.009.126-.081.162l-2.781 1.323a.536.536 0 01-.243.054c-.252 0-.495-.144-.729-.432-.234-.288-.396-.675-.486-1.161l-1.404.756c-1.044.54-1.935.81-2.673.81-.576 0-1.026-.144-1.35-.432-.306-.306-.459-.72-.459-1.242 0-.558.198-.972.594-1.242.396-.288 1.152-.621 2.268-.999l2.943-.999v-2.16c0-1.098-.126-1.899-.378-2.403-.252-.522-.63-.783-1.134-.783-.972 0-1.53.711-1.674 2.133-.09.9-.549 1.35-1.377 1.35-.774 0-1.161-.333-1.161-.999 0-.468.288-.936.864-1.404.594-.486 1.305-.882 2.133-1.188.828-.324 1.566-.486 2.214-.486.81 0 1.458.252 1.944.756.504.486.756 1.224.756 2.214v4.779c0 .558.09.981.27 1.269.18.288.441.432.783.432.27 0 .594-.081.972-.243h.054zm-4.239-.351a1.98 1.98 0 01-.027-.405v-2.079l-1.917.702c-.468.18-.801.378-.999.594-.198.198-.297.45-.297.756 0 .378.108.675.324.891.216.216.495.324.837.324.378 0 .801-.117 1.269-.351l.81-.432zM161.096 32.324c-1.674 0-3.168-.387-4.482-1.161a8.294 8.294 0 01-3.024-3.186c-.702-1.35-1.053-2.817-1.053-4.401 0-1.854.468-3.438 1.404-4.752a8.78 8.78 0 013.591-2.997c1.476-.666 2.979-.999 4.509-.999 1.71 0 3.213.405 4.509 1.215 1.296.792 2.286 1.845 2.97 3.159a8.753 8.753 0 011.053 4.185 8.277 8.277 0 01-1.296 4.509c-.864 1.368-2.025 2.448-3.483 3.24-1.44.792-3.006 1.188-4.698 1.188zm.918-.648c1.08 0 2.043-.288 2.889-.864.864-.594 1.539-1.458 2.025-2.592.504-1.134.756-2.484.756-4.05 0-1.656-.279-3.141-.837-4.455-.54-1.314-1.323-2.34-2.349-3.078-1.008-.738-2.196-1.107-3.564-1.107-1.746 0-3.105.63-4.077 1.89-.954 1.242-1.431 2.97-1.431 5.184 0 1.71.279 3.258.837 4.644.576 1.386 1.359 2.475 2.349 3.267a5.445 5.445 0 003.402 1.161zM172.345 32c-.054 0-.081-.054-.081-.162 0-.108.027-.162.081-.162.594 0 .999-.126 1.215-.378.216-.27.324-.765.324-1.485V16.016c0-.63-.063-1.08-.189-1.35-.108-.288-.315-.432-.621-.432-.27 0-.63.108-1.08.324h-.027c-.072 0-.126-.045-.162-.135-.036-.09-.036-.153 0-.189l3.807-1.782.108-.027c.072 0 .153.036.243.108.108.072.162.135.162.189v17.091c0 .738.099 1.233.297 1.485.198.252.603.378 1.215.378.054 0 .081.054.081.162 0 .108-.027.162-.081.162-.432 0-.783-.009-1.053-.027l-1.593-.027-1.566.027c-.27.018-.63.027-1.08.027zM179.14 32c-.054 0-.081-.054-.081-.162 0-.108.027-.162.081-.162.612 0 1.017-.126 1.215-.378.198-.252.297-.747.297-1.485v-4.914c0-.612-.063-1.053-.189-1.323-.126-.288-.342-.432-.648-.432-.27 0-.621.108-1.053.324h-.027c-.072 0-.126-.045-.162-.135-.036-.09-.027-.153.027-.189l3.888-1.809.081-.027c.072 0 .144.045.216.135.09.072.135.135.135.189v.567a57.167 57.167 0 00-.054 2.673v4.941c0 .738.099 1.233.297 1.485.216.252.63.378 1.242.378.054 0 .081.054.081.162 0 .108-.027.162-.081.162-.45 0-.81-.009-1.08-.027l-1.566-.027-1.566.027a15.72 15.72 0 01-1.053.027zm2.484-13.527c-.468 0-.837-.126-1.107-.378-.252-.252-.378-.612-.378-1.08 0-.45.126-.792.378-1.026.27-.252.639-.378 1.107-.378.45 0 .801.126 1.053.378.252.234.378.576.378 1.026 0 .468-.126.828-.378 1.08-.234.252-.585.378-1.053.378zM185.771 32c-.054 0-.081-.054-.081-.162 0-.108.027-.162.081-.162.612 0 1.017-.126 1.215-.378.198-.252.297-.747.297-1.485v-4.914c0-.612-.063-1.053-.189-1.323-.126-.288-.342-.432-.648-.432-.27 0-.621.108-1.053.324h-.027c-.072 0-.126-.045-.162-.135-.036-.09-.027-.153.027-.189l3.888-1.809.081-.027c.072 0 .144.045.216.135.09.072.135.135.135.189v.567a57.167 57.167 0 00-.054 2.673v4.941c0 .738.099 1.233.297 1.485.216.252.63.378 1.242.378.054 0 .081.054.081.162 0 .108-.027.162-.081.162-.45 0-.81-.009-1.08-.027l-1.566-.027-1.566.027a15.72 15.72 0 01-1.053.027zm2.484-13.527c-.468 0-.837-.126-1.107-.378-.252-.252-.378-.612-.378-1.08 0-.45.126-.792.378-1.026.27-.252.639-.378 1.107-.378.45 0 .801.126 1.053.378.252.234.378.576.378 1.026 0 .468-.126.828-.378 1.08-.234.252-.585.378-1.053.378zM204.823 31.676c.054 0 .081.054.081.162 0 .108-.027.162-.081.162-.45 0-.801-.009-1.053-.027l-1.566-.027-1.539.027c-.27.018-.63.027-1.08.027-.054 0-.081-.054-.081-.162 0-.108.027-.162.081-.162.612 0 1.017-.126 1.215-.378.198-.252.297-.747.297-1.485v-4.05c0-1.008-.189-1.746-.567-2.214-.36-.486-.936-.729-1.728-.729-.468 0-.945.108-1.431.324a4.934 4.934 0 00-1.323.864v5.805c0 .738.099 1.233.297 1.485.198.252.603.378 1.215.378.054 0 .081.054.081.162 0 .108-.027.162-.081.162-.45 0-.801-.009-1.053-.027l-1.566-.027-1.566.027a15.72 15.72 0 01-1.053.027c-.054 0-.081-.054-.081-.162 0-.108.027-.162.081-.162.612 0 1.017-.126 1.215-.378.198-.252.297-.747.297-1.485v-5.157c0-.576-.072-.999-.216-1.269-.126-.27-.342-.405-.648-.405-.27 0-.72.135-1.35.405h-.027c-.072 0-.126-.045-.162-.135-.036-.09-.027-.144.027-.162l3.537-1.728c.108-.036.171-.054.189-.054.18 0 .36.207.54.621.198.396.306.918.324 1.566 1.26-1.494 2.628-2.241 4.104-2.241.99 0 1.764.306 2.322.918.558.594.837 1.404.837 2.43v5.211c0 .738.099 1.233.297 1.485.198.252.603.378 1.215.378z" fill="#96B6DC"/><path d="M216.634 21.578c.036 0 .054.054.054.162 0 .108-.018.162-.054.162-.54 0-1.008.216-1.404.648-.378.432-.729 1.089-1.053 1.971l-3.105 8.235c-.648 1.728-1.269 3.087-1.863 4.077-.594.99-1.197 1.692-1.809 2.106a3.434 3.434 0 01-2.025.648c-.504 0-.891-.108-1.161-.324-.288-.198-.432-.504-.432-.918 0-.36.117-.639.351-.837.216-.18.486-.27.81-.27.216 0 .396.027.54.081.162.072.324.162.486.27.18.108.333.189.459.243.144.054.315.081.513.081.414 0 .792-.171 1.134-.513.36-.324.729-.873 1.107-1.647.396-.774.864-1.872 1.404-3.294l-4.266-8.64c-.396-.774-.711-1.287-.945-1.539a1.023 1.023 0 00-.81-.378c-.054 0-.081-.054-.081-.162 0-.108.027-.162.081-.162.468 0 .828.009 1.08.027l1.053.027 1.836-.027c.27-.018.639-.027 1.107-.027.054 0 .081.054.081.162 0 .108-.027.162-.081.162-.486 0-.846.045-1.08.135-.216.072-.324.216-.324.432 0 .162.045.324.135.486l3.294 6.804 1.809-5.238c.162-.468.243-.864.243-1.188 0-.954-.603-1.431-1.809-1.431-.036 0-.054-.054-.054-.162 0-.108.018-.162.054-.162.486 0 .855.009 1.107.027l1.62.027 1.053-.027c.198-.018.513-.027.945-.027z" fill="#96B6DC"/><path d="M229.154 31.676c.054 0 .081.054.081.162 0 .108-.027.162-.081.162-.45 0-.81-.009-1.08-.027l-1.539-.027-2.025.027c-.306.018-.72.027-1.242.027-.036 0-.054-.054-.054-.162 0-.108.018-.162.054-.162.738 0 1.107-.189 1.107-.567 0-.162-.072-.342-.216-.54L221 26.411l-.81.702v2.7c0 .738.099 1.233.297 1.485.216.252.63.378 1.242.378.072 0 .108.054.108.162 0 .108-.036.162-.108.162-.45 0-.81-.009-1.08-.027l-1.539-.027-1.539.027c-.27.018-.63.027-1.08.027-.054 0-.081-.054-.081-.162 0-.108.027-.162.081-.162.594 0 .999-.126 1.215-.378.216-.27.324-.765.324-1.485V16.016c0-.63-.063-1.08-.189-1.35-.126-.288-.333-.432-.621-.432-.27 0-.639.108-1.107.324h-.027c-.054 0-.108-.045-.162-.135-.036-.108-.027-.171.027-.189l3.753-1.782.135-.027c.072 0 .144.036.216.108.09.072.135.135.135.189v13.824l2.889-2.592c.504-.432.756-.855.756-1.269 0-.234-.108-.423-.324-.567-.198-.144-.486-.216-.864-.216-.054 0-.081-.054-.081-.162 0-.108.027-.162.081-.162.504 0 .9.009 1.188.027l2.052.027 1.917-.027c.252-.018.594-.027 1.026-.027.054 0 .081.054.081.162 0 .108-.027.162-.081.162-.738 0-1.575.189-2.511.567a8.48 8.48 0 00-2.592 1.593l-1.161.999 3.591 4.752c.504.666.999 1.143 1.485 1.431.486.288.99.432 1.512.432zM74.605 39.5V50h-1.23l-6.3-7.83V50h-1.5V39.5h1.23l6.3 7.83V39.5h1.5zM82.098 50.12c-1.4 0-2.49-.4-3.27-1.2-.78-.8-1.17-1.95-1.17-3.45V39.5h1.5v5.91c0 2.25.985 3.375 2.955 3.375.96 0 1.695-.275 2.205-.825.51-.56.765-1.41.765-2.55V39.5h1.455v5.97c0 1.51-.39 2.665-1.17 3.465-.78.79-1.87 1.185-3.27 1.185zM91.508 40.805h-3.6V39.5h8.685v1.305h-3.6V50h-1.485v-9.195zM105.246 50l-2.265-3.225c-.28.02-.5.03-.66.03h-2.595V50h-1.5V39.5h4.095c1.36 0 2.43.325 3.21.975.78.65 1.17 1.545 1.17 2.685 0 .81-.2 1.5-.6 2.07-.4.57-.97.985-1.71 1.245l2.49 3.525h-1.635zm-2.97-4.47c.95 0 1.675-.205 2.175-.615.5-.41.75-.995.75-1.755 0-.76-.25-1.34-.75-1.74-.5-.41-1.225-.615-2.175-.615h-2.55v4.725h2.55zM109.125 39.5h1.5V50h-1.5V39.5zM115.853 40.805h-3.6V39.5h8.685v1.305h-3.6V50h-1.485v-9.195zM122.572 39.5h1.5V50h-1.5V39.5zM131.956 50.12c-1.06 0-2.015-.23-2.865-.69a5.265 5.265 0 01-2.01-1.935c-.48-.82-.72-1.735-.72-2.745s.24-1.925.72-2.745c.49-.82 1.16-1.46 2.01-1.92.85-.47 1.805-.705 2.865-.705 1.05 0 2 .235 2.85.705a5.05 5.05 0 011.995 1.92c.48.81.72 1.725.72 2.745s-.24 1.94-.72 2.76a5.189 5.189 0 01-1.995 1.92c-.85.46-1.8.69-2.85.69zm0-1.335c.77 0 1.46-.175 2.07-.525.62-.35 1.105-.83 1.455-1.44.36-.62.54-1.31.54-2.07 0-.76-.18-1.445-.54-2.055a3.768 3.768 0 00-1.455-1.455c-.61-.35-1.3-.525-2.07-.525-.77 0-1.47.175-2.1.525-.62.35-1.11.835-1.47 1.455-.35.61-.525 1.295-.525 2.055 0 .76.175 1.45.525 2.07.36.61.85 1.09 1.47 1.44.63.35 1.33.525 2.1.525zM148.843 39.5V50h-1.23l-6.3-7.83V50h-1.5V39.5h1.23l6.3 7.83V39.5h1.5zM151.986 39.5h1.5V50h-1.5V39.5zM159.69 50.12c-.79 0-1.555-.12-2.295-.36-.73-.25-1.305-.57-1.725-.96l.555-1.17c.4.36.91.655 1.53.885.63.22 1.275.33 1.935.33.87 0 1.52-.145 1.95-.435.43-.3.645-.695.645-1.185 0-.36-.12-.65-.36-.87a2.23 2.23 0 00-.87-.525c-.34-.12-.825-.255-1.455-.405-.79-.19-1.43-.38-1.92-.57a3.27 3.27 0 01-1.245-.87c-.34-.4-.51-.935-.51-1.605 0-.56.145-1.065.435-1.515.3-.45.75-.81 1.35-1.08.6-.27 1.345-.405 2.235-.405.62 0 1.23.08 1.83.24.6.16 1.115.39 1.545.69l-.495 1.2c-.44-.28-.91-.49-1.41-.63a5.1 5.1 0 00-1.47-.225c-.85 0-1.49.155-1.92.465-.42.31-.63.71-.63 1.2 0 .36.12.655.36.885.24.22.535.395.885.525.36.12.845.25 1.455.39.79.19 1.425.38 1.905.57.48.19.89.48 1.23.87.35.39.525.915.525 1.575 0 .55-.15 1.055-.45 1.515-.3.45-.755.81-1.365 1.08-.61.26-1.36.39-2.25.39zM167.885 40.805h-3.6V39.5h8.685v1.305h-3.6V50h-1.485v-9.195z" fill="#96B6DC"/><defs><filter id="hfilter0_d_166_155" x=".58" y=".731" width="59.84" height="64.84" filterUnits="userSpaceOnUse" color-interpolation-filters="sRGB"><feFlood flood-opacity="0" result="BackgroundImageFix"/><feColorMatrix in="SourceAlpha" values="0 0 0 0 0 0 0 0 0 0 0 0 0 0 0 0 0 0 127 0" result="hardAlpha"/><feOffset dy="2.151"/><feGaussianBlur stdDeviation="1.075"/><feComposite in2="hardAlpha" operator="out"/><feColorMatrix values="0 0 0 0 0 0 0 0 0 0 0 0 0 0 0 0 0 0 0.03 0"/><feBlend in2="BackgroundImageFix" result="effect1_dropShadow_166_155"/><feBlend in="SourceGraphic" in2="effect1_dropShadow_166_155" result="shape"/></filter></defs></symbol><symbol fill="none" viewBox="0 0 32 32" id="message" xmlns="http://www.w3.org/2000/svg"><path d="M10.667 12h10.666m-10.666 5.333h8m5.333-12a4 4 0 014 4V20a4 4 0 01-4 4h-6.667l-6.666 4v-4H8a4 4 0 01-4-4V9.333a4 4 0 014-4h16z" stroke="currentColor" stroke-width="2.5" stroke-linecap="round" stroke-linejoin="round"/></symbol><symbol fill="none" viewBox="0 0 14 14" id="phone" xmlns="http://www.w3.org/2000/svg"><path d="M2.816 6.059a11.782 11.782 0 005.125 5.125l1.711-1.71c.21-.21.521-.28.794-.187a8.872 8.872 0 002.776.443.78.78 0 01.778.778v2.714a.78.78 0 01-.778.778C5.92 14 0 8.081 0 .778A.78.78 0 01.778 0H3.5a.78.78 0 01.778.778c0 .972.155 1.905.443 2.776a.78.78 0 01-.194.794l-1.711 1.71z" fill="currentColor"/></symbol><symbol fill="none" viewBox="0 0 26 22" id="tg" xmlns="http://www.w3.org/2000/svg"><path fill-rule="evenodd" clip-rule="evenodd" d="M22.721.537A1.875 1.875 0 0125.3 2.57l-2.835 17.196c-.275 1.659-2.095 2.61-3.616 1.784-1.273-.691-3.163-1.756-4.863-2.867-.85-.557-3.454-2.338-3.134-3.605.275-1.084 4.65-5.157 7.15-7.578.982-.951.534-1.5-.625-.625-2.877 2.172-7.497 5.476-9.025 6.406-1.347.82-2.05.96-2.89.82-1.532-.255-2.953-.65-4.113-1.131-1.568-.65-1.492-2.805-.002-3.433l21.375-9z" fill="currentColor"/></symbol><symbol fill="none" viewBox="0 0 28 21" id="youtube" xmlns="http://www.w3.org/2000/svg"><path d="M28 10.934c0 .07 0 .147-.003.238-.003.253-.01.537-.016.84-.025.872-.069 1.741-.137 2.56-.094 1.128-.232 2.069-.419 2.775a4.36 4.36 0 01-3.072 3.078c-.884.238-2.616.384-5.053.475-1.16.044-2.4.072-3.64.088-.435.006-.838.009-1.2.012h-.92c-.362-.003-.765-.006-1.2-.012-1.24-.016-2.48-.044-3.64-.088-2.437-.094-4.172-.24-5.053-.475a4.354 4.354 0 01-3.072-3.078C.385 16.64.25 15.7.156 14.572a47.055 47.055 0 01-.137-2.56c-.01-.303-.013-.587-.016-.84 0-.09-.003-.169-.003-.238v-.175c0-.068 0-.146.003-.237.003-.253.01-.538.016-.84.025-.873.068-1.741.137-2.56.094-1.128.232-2.069.419-2.775a4.355 4.355 0 013.072-3.078C4.528 1.03 6.263.884 8.7.794 9.86.75 11.1.722 12.34.706c.435-.006.838-.01 1.2-.012h.92c.362.003.765.006 1.2.012 1.24.016 2.48.044 3.64.088 2.438.094 4.172.24 5.053.475a4.35 4.35 0 013.072 3.078c.19.706.325 1.647.419 2.775.069.819.112 1.687.137 2.56.01.302.013.587.016.84 0 .09.003.169.003.237v.175zm-2.25-.162c0-.066 0-.138-.003-.222-.003-.244-.01-.513-.016-.803a42.297 42.297 0 00-.131-2.434c-.084-1.007-.203-1.832-.35-2.385a2.103 2.103 0 00-1.481-1.484c-.656-.175-2.31-.316-4.556-.4a141.944 141.944 0 00-4.766-.097h-.894l-1.181.01c-1.222.015-2.444.043-3.585.087-2.246.087-3.903.225-4.556.4A2.108 2.108 0 002.75 4.928c-.147.553-.266 1.378-.35 2.385a45.27 45.27 0 00-.131 2.434c-.01.29-.013.562-.016.803 0 .084-.003.16-.003.222v.15c0 .066 0 .137.003.222.003.243.01.512.016.803.022.831.065 1.662.131 2.434.084 1.006.203 1.831.35 2.385a2.103 2.103 0 001.481 1.484c.657.175 2.31.316 4.556.4a141.615 141.615 0 004.766.097h.894l1.181-.01c1.222-.015 2.444-.043 3.584-.087 2.247-.087 3.904-.225 4.557-.4a2.108 2.108 0 001.481-1.484c.147-.553.266-1.378.35-2.385.066-.772.106-1.603.131-2.434.01-.29.013-.563.016-.803 0-.085.003-.16.003-.222v-.15zM11.219 6.659l7.25 4.22-7.25 4.155V6.66z" fill="currentColor"/></symbol></svg>