<svg width="135" height="136" viewBox="0 0 135 136" fill="none" xmlns="http://www.w3.org/2000/svg">
<g opacity="0.2">
<path d="M107.225 78.3087C108.353 69.2065 106.094 58.6777 101.424 50.8016C98.2052 45.3813 91.9298 38.7165 84.9116 41.7329C78.7669 44.3838 77.5614 52.5996 78.7716 58.4173C80.1409 64.9498 83.346 71.5328 87.8156 76.5204C90.017 78.979 92.7959 81.2746 96.0723 82.1289C99.513 83.0319 102.783 82.0971 105.618 80.0488C107.161 78.937 105.162 76.7743 103.631 77.8662C93.4619 85.1844 84.5193 67.8432 82.2795 60.3114C80.8423 55.4652 80.3339 48.894 84.7274 45.2699C89.7234 41.136 95.8307 47.2757 98.3017 51.3283C103.034 59.105 105.407 69.148 104.292 78.2303C104.058 80.0901 106.999 80.2009 107.225 78.3087Z" fill="#96B6DC"/>
<path d="M104.906 78.1446C100.263 72.9911 97.3489 66.5649 94.2902 60.4096C93.4501 58.7043 90.8227 60.0754 91.6754 61.7608C94.8497 68.129 97.932 74.7735 102.736 80.1128C103.987 81.5216 106.19 79.5462 104.906 78.1446Z" fill="#96B6DC"/>
<path d="M86.7302 89.5504C81.6716 87.2011 76.5445 85.0035 71.2803 83.1093C65.2723 80.9379 58.5748 78.5793 52.0968 78.8149C49.8135 78.8984 47.3427 79.3648 45.6956 81.0797C43.8824 82.9682 43.8115 85.7124 44.3343 88.1366C45.1482 91.9452 47.02 95.7564 49.9488 98.3426C53.3038 101.311 57.6022 102.926 61.9652 103.606C71.3066 105.051 83.4077 102.195 87.2063 92.5307C87.9058 90.7715 85.0734 89.9203 84.3865 91.6596C81.4298 99.2091 71.8031 101.461 64.5451 100.95C60.5433 100.667 56.4708 99.5296 53.1882 97.193C50.2307 95.0907 48.4387 91.9438 47.4498 88.4983C47.1316 87.3756 46.8639 86.1735 46.9952 85.0016C47.0706 84.2686 47.3753 83.5696 47.7199 83.2027C48.8042 82.0227 50.7246 81.7645 52.5133 81.7573C58.3163 81.7065 64.1906 83.7373 69.592 85.6349C72.7765 86.7656 75.9177 88.0083 79.0211 89.3106C80.227 89.8258 81.433 90.3409 82.6462 90.8886C83.1607 91.1318 83.668 91.3426 84.1825 91.5858C84.6375 91.7912 84.9805 91.9533 85.152 92.0344C86.8599 92.8127 88.458 90.3413 86.7302 89.5504Z" fill="#96B6DC"/>
<path d="M84.7484 91.3083C78.3137 91.4319 71.9686 90.2736 65.6148 89.6118C63.7303 89.4187 63.618 92.3598 65.5025 92.5529C71.8563 93.2148 78.2013 94.3731 84.636 94.2494C86.5222 94.2205 86.6472 91.2595 84.7484 91.3083Z" fill="#96B6DC"/>
<path d="M69.6499 62.4651C67.0437 55.2027 63.959 47.2456 57.9063 42.1169C54.2083 38.9864 49.0465 36.0973 44.072 36.1166C41.944 36.1313 39.8433 36.805 38.5301 38.5647C37.0202 40.5901 37.0395 43.2801 37.3655 45.663C38.2384 51.8799 43.2007 56.7064 48.3914 59.7254C54.0714 63.0274 61.0775 65.1636 67.7068 64.3826C69.582 64.1514 68.9255 61.2797 67.0701 61.5234C62.2385 62.1077 57.0557 60.6558 52.6904 58.6632C47.9621 56.4959 43.2857 53.1063 41.1229 48.2175C39.7569 45.1461 39.0033 39.3117 43.6727 39.0706C47.7482 38.8428 52.0849 41.3192 55.2249 43.7047C61.2466 48.3117 64.297 56.1911 66.7712 63.0908C67.4038 64.8595 70.2824 64.2338 69.6499 62.4651Z" fill="#96B6DC"/>
<path d="M67.4899 60.5955C62.8425 57.6427 58.5505 54.2184 53.9031 51.2657C52.3143 50.2562 50.7162 52.7276 52.3249 53.7497C56.9723 56.7024 61.2643 60.1267 65.9116 63.0794C67.5203 64.1015 69.0986 61.6176 67.4899 60.5955Z" fill="#96B6DC"/>
</g>
</svg>
