<svg width="239" height="342" viewBox="0 0 239 342" fill="none" xmlns="http://www.w3.org/2000/svg">
<g opacity="0.25">
<path d="M71.3874 155.523C82.6771 154.467 97.1421 151.218 100.361 138.473C102.534 129.821 99.5019 120.619 99.0884 111.906C98.2962 95.1444 108.392 79.4503 121.358 69.6562C134.668 59.5879 151.858 54.373 168.545 55.6016C176.744 56.1926 184.832 58.3988 192.057 62.3309C199.313 66.2716 205.798 71.913 211.654 77.6996C224.676 90.6095 235.237 106.23 242.76 122.941C250.144 139.361 254.934 157.515 253.953 175.649C253.488 184.018 251.788 192.481 248.398 200.191C244.31 209.455 237.378 217.225 229.308 223.219C212.791 235.472 191.205 241.099 170.796 240.822C150.448 240.51 131.837 230.688 121.306 213.077C115.804 203.879 113.145 193.57 110.639 183.253C109.363 178.03 107.715 172.384 102.866 169.395C98.0899 166.444 92.3491 166.802 87.0465 167.702C82.4765 168.502 78.0042 169.799 73.4429 170.568C72.6305 170.713 71.9847 170.315 71.6978 169.531C70.4552 165.945 68.7521 162.568 68.3676 158.734C68.2006 156.907 71.0618 156.944 71.2288 158.77C71.5661 162.29 73.3236 165.53 74.4592 168.834C73.8672 168.486 73.3063 168.145 72.7142 167.797C81.2177 166.373 90.1945 162.628 98.9046 164.772C109.733 167.451 112.105 177.16 114.377 186.74C116.815 196.937 120.262 207.011 126.389 215.644C132.24 223.88 140.396 230.338 149.82 233.971C169.117 241.431 192.532 238.058 211.202 230.162C220.748 226.122 229.706 220.441 236.715 212.759C243.268 205.572 247.398 196.942 249.497 187.464C253.365 170.062 250.429 151.699 244.592 135.086C238.469 117.688 228.844 101.353 216.813 87.4076C206.037 74.935 192.94 63.1464 176.409 59.5929C159.94 56.0567 142.141 59.8269 127.915 68.6508C114.108 77.2377 102.249 92.326 101.962 109.225C101.808 117.865 104.578 126.374 103.862 135.042C103.063 144.495 96.7433 151.628 88.0345 155.01C82.7308 157.068 77.0651 157.884 71.4345 158.391C69.5065 158.562 69.5616 155.689 71.3874 155.523Z" fill="#E1D4DB"/>
<path d="M80.7521 158.821C87.3077 157.58 93.9949 156.895 100.428 155.066C103.559 154.187 106.611 152.983 109.402 151.27C112.528 149.315 114.967 146.564 117.417 143.834C125.102 135.164 130.596 124.761 138.85 116.584C154.258 101.354 177.685 95.2629 198.845 98.3515C210.659 100.078 221.881 104.798 231.026 112.536C232.442 113.735 230.394 115.737 228.99 114.559C212.448 100.59 188.97 97.4474 168.502 103.098C157.611 106.111 147.459 111.68 139.616 119.887C131.803 128.051 126.438 138.17 118.839 146.528C114.158 151.681 109.263 155.296 102.56 157.437C95.7144 159.605 88.4937 160.276 81.4609 161.603C79.6544 161.943 78.9257 159.171 80.7521 158.821Z" fill="#E1D4DB"/>
<path d="M114.223 158.434C147.431 161.248 181.686 169.022 214.756 161.151C224.353 158.871 233.485 155.169 241.82 149.92C243.368 148.938 244.779 151.428 243.231 152.41C213.124 171.312 176.193 168.239 142.458 164.355C133.035 163.274 123.626 162.079 114.177 161.276C112.366 161.144 112.401 158.282 114.223 158.434Z" fill="#E1D4DB"/>
<path d="M134.342 145.111C160.246 125.196 195.66 120.208 227.296 125.307C229.115 125.593 228.336 128.35 226.537 128.053C196.028 123.131 161.361 127.906 136.374 147.118C134.937 148.248 132.905 146.241 134.342 145.111Z" fill="#E1D4DB"/>
<path d="M163.107 145.656C176.438 146.996 189.856 144.314 202.395 139.893C204.126 139.28 204.834 142.063 203.104 142.675C190.363 147.158 176.629 149.887 163.071 148.517C161.258 148.334 161.262 145.464 163.107 145.656Z" fill="#E1D4DB"/>
<path d="M121.801 172.27C134.62 179.716 148.021 186.517 162.604 189.649C178.222 192.983 193.789 191.214 209.175 187.549C219.905 184.995 231.038 181.528 239.004 173.541C240.309 172.222 242.332 174.26 241.027 175.579C234.112 182.497 224.899 186.243 215.628 188.865C207.002 191.28 198.094 193.196 189.158 193.996C174.032 195.383 159.113 192.864 145.044 187.204C136.48 183.741 128.323 179.417 120.353 174.775C118.767 173.832 120.206 171.358 121.801 172.27Z" fill="#E1D4DB"/>
<path d="M123.611 184.376C130.9 197.982 142.109 209.13 156.272 215.42C172.385 222.553 190.426 222.83 206.638 215.933C216.422 211.757 225.336 205.812 234.562 200.557C236.154 199.655 237.585 202.134 235.973 203.047C218.815 212.822 201.976 224.601 181.322 223.936C165.462 223.423 150.136 217.634 138.087 207.278C131.113 201.282 125.449 193.886 121.103 185.797C120.248 184.15 122.736 182.74 123.611 184.376Z" fill="#E1D4DB"/>
<path d="M165.45 203.353C175.243 206.014 185.679 206.285 195.033 201.905C196.693 201.123 198.104 203.612 196.444 204.395C186.391 209.118 175.255 209.007 164.703 206.118C162.905 205.637 163.672 202.861 165.45 203.353Z" fill="#E1D4DB"/>
<path d="M146.156 173.943C158.208 176.693 170.562 177.377 182.884 177.447C184.729 177.454 184.694 180.316 182.849 180.309C170.291 180.241 157.679 179.519 145.409 176.709C143.593 176.29 144.352 173.545 146.156 173.943Z" fill="#E1D4DB"/>
<path d="M210.706 174.655C217.554 173.328 224.311 172.025 230.136 167.961C231.649 166.92 233.06 169.409 231.546 170.451C225.515 174.659 218.464 176.048 211.383 177.429C209.608 177.777 208.879 175.006 210.706 174.655Z" fill="#E1D4DB"/>
<path d="M222.074 143.662C228.435 142.636 234.641 140.962 241.014 139.956C242.823 139.667 243.532 142.45 241.722 142.738C235.361 143.764 229.155 145.438 222.782 146.444C220.962 146.713 220.244 143.961 222.074 143.662Z" fill="#E1D4DB"/>
<path d="M109.683 128.56C116.049 116.216 121.677 102.895 132.792 93.9655C144.487 84.5753 159.734 79.4097 174.673 79.3652C183.362 79.3363 191.983 80.9511 200.212 83.6831C201.964 84.2691 201.205 87.0148 199.453 86.4288C180.858 80.2551 161.764 80.9963 144.248 90.0005C136.303 94.0813 129.641 99.777 124.595 107.163C119.711 114.325 116.142 122.321 112.156 130C111.299 131.644 108.846 130.192 109.683 128.56Z" fill="#E1D4DB"/>
<path d="M117.884 91.2811C123.066 85.7131 128.263 80.0317 134.52 75.6179C140.905 71.1052 148.183 68.5863 155.988 68.1111C157.816 67.996 157.781 70.858 155.953 70.973C148.383 71.4464 141.46 74.0802 135.339 78.5485C129.563 82.7427 124.75 88.1274 119.907 93.319C118.645 94.6657 116.634 92.6477 117.884 91.2811Z" fill="#E1D4DB"/>
<path d="M33.7218 255.073C33.0734 246.178 35.7843 236.063 40.7058 228.643C44.0981 223.536 50.5199 217.371 57.188 220.645C63.0258 223.521 63.7935 231.56 62.3326 237.151C60.6821 243.428 57.2463 249.664 52.6606 254.289C50.4019 256.569 47.5904 258.662 44.3663 259.331C40.9804 260.039 37.8502 258.971 35.1976 256.842C33.7538 255.687 35.8015 253.684 37.234 254.82C46.7517 262.426 56.2878 246.023 58.8327 238.818C60.4663 234.182 61.2826 227.825 57.1934 224.089C52.544 219.829 46.3113 225.493 43.7125 229.307C38.7345 236.628 35.9372 246.265 36.5744 255.141C36.7102 256.959 33.849 256.922 33.7218 255.073Z" fill="#E1D4DB"/>
<path d="M35.984 255.03C40.7462 250.252 43.892 244.154 47.1647 238.326C48.0643 236.711 50.5488 238.172 49.6379 239.767C46.2425 245.796 42.9228 252.098 37.9954 257.048C36.7108 258.355 34.6682 256.328 35.984 255.03Z" fill="#E1D4DB"/>
<path d="M53.0776 267.001C58.1059 264.967 63.1933 263.084 68.3989 261.503C74.3405 259.689 80.961 257.727 87.2409 258.274C89.4544 258.467 91.8312 259.041 93.3468 260.787C95.015 262.71 94.9493 265.379 94.3226 267.708C93.3452 271.367 91.3403 274.977 88.3689 277.345C84.9648 280.063 80.7108 281.421 76.4401 281.867C67.2967 282.811 55.6841 279.444 52.469 269.872C51.8759 268.129 54.6686 267.441 55.2504 269.164C57.7515 276.641 66.9906 279.301 74.0648 279.16C77.9653 279.082 81.9764 278.177 85.2791 276.069C88.2547 274.172 90.1495 271.204 91.279 267.906C91.6431 266.832 91.9621 265.677 91.8921 264.533C91.8548 263.817 91.5932 263.123 91.2765 262.75C90.2814 261.551 88.4289 261.206 86.6921 261.111C81.0586 260.777 75.2537 262.461 69.9147 264.039C66.7664 264.981 63.6546 266.033 60.5767 267.146C59.3801 267.587 58.1836 268.028 56.9785 268.501C56.4668 268.712 55.9638 268.891 55.4521 269.102C55.0002 269.28 54.6591 269.42 54.4885 269.491C52.7916 270.163 51.3608 267.684 53.0776 267.001Z" fill="#E1D4DB"/>
<path d="M54.9137 268.802C61.1571 269.238 67.3763 268.425 73.5797 268.094C75.4195 267.999 75.3843 270.861 73.5445 270.956C67.3411 271.287 61.1219 272.1 54.8785 271.664C53.048 271.544 53.0719 268.662 54.9137 268.802Z" fill="#E1D4DB"/>
<path d="M70.9954 241.53C73.8828 234.605 77.2693 227.028 83.3993 222.344C87.1445 219.485 92.2995 216.932 97.1299 217.195C99.1959 217.314 101.203 218.071 102.392 219.845C103.759 221.886 103.608 224.498 103.175 226.796C102.022 232.791 96.9658 237.235 91.7764 239.912C86.0979 242.841 79.1886 244.572 72.7884 243.488C70.9785 243.171 71.757 240.414 73.5471 240.742C78.211 241.547 83.3158 240.391 87.6533 238.67C92.3517 236.797 97.0599 233.734 99.4004 229.093C100.878 226.177 101.896 220.547 97.3728 220.084C93.4257 219.663 89.0923 221.855 85.9257 224.018C79.8513 228.196 76.502 235.699 73.7605 242.279C73.0593 243.966 70.2942 243.217 70.9954 241.53Z" fill="#E1D4DB"/>
<path d="M73.1813 239.819C77.8398 237.179 82.1763 234.064 86.8347 231.424C88.4274 230.522 89.8582 233 88.2456 233.914C83.5872 236.554 79.2507 239.669 74.5922 242.308C72.9796 243.222 71.5687 240.732 73.1813 239.819Z" fill="#E1D4DB"/>
</g>
</svg>
