<svg width="316" height="342" viewBox="0 0 316 342" fill="none" xmlns="http://www.w3.org/2000/svg">
<g opacity="0.15">
<path d="M244.343 155.522C233.053 154.466 218.588 151.217 215.369 138.472C213.197 129.82 216.229 120.618 216.642 111.905C217.434 95.1435 207.339 79.4493 194.373 69.6552C181.063 59.5869 163.872 54.372 147.185 55.6006C138.987 56.1916 130.899 58.3979 123.673 62.3299C116.417 66.2706 109.933 71.912 104.077 77.6986C91.0542 90.6085 80.4934 106.229 72.9708 122.94C65.5862 139.36 60.7963 157.514 61.7771 175.648C62.2424 184.017 63.9429 192.48 67.3326 200.19C71.4202 209.454 78.3526 217.224 86.423 223.218C102.939 235.472 124.526 241.098 144.934 240.821C165.283 240.509 183.894 230.687 194.425 213.076C199.926 203.878 202.585 193.569 205.091 183.252C206.368 178.029 208.015 172.383 212.865 169.394C217.641 166.443 223.381 166.801 228.684 167.701C233.254 168.501 237.726 169.798 242.288 170.567C243.1 170.712 243.746 170.314 244.033 169.53C245.275 165.944 246.978 162.567 247.363 158.733C247.53 156.906 244.669 156.943 244.502 158.769C244.164 162.289 242.407 165.529 241.271 168.833C241.863 168.485 242.424 168.144 243.016 167.796C234.513 166.372 225.536 162.627 216.826 164.771C205.997 167.45 203.626 177.159 201.353 186.739C198.915 196.937 195.469 207.01 189.341 215.643C183.49 223.88 175.334 230.337 165.911 233.971C146.614 241.43 123.199 238.057 104.528 230.161C94.9826 226.121 86.0248 220.44 79.016 212.758C72.463 205.571 68.3322 196.941 66.2338 187.463C62.3657 170.061 65.3014 151.698 71.1382 135.085C77.262 117.687 86.8865 101.352 98.9176 87.4066C109.693 74.9341 122.791 63.1454 139.322 59.5919C155.791 56.0558 173.59 59.8259 187.815 68.6498C201.623 77.2368 213.482 92.325 213.769 109.224C213.923 117.864 211.153 126.373 211.869 135.041C212.667 144.494 218.987 151.627 227.696 155.01C233 157.067 238.666 157.883 244.296 158.39C246.224 158.561 246.169 155.688 244.343 155.522Z" fill="#96B6DC"/>
<path d="M234.978 158.82C228.423 157.579 221.736 156.894 215.303 155.065C212.172 154.186 209.119 152.982 206.329 151.27C203.203 149.314 200.764 146.563 198.313 143.833C190.628 135.163 185.135 124.76 176.881 116.584C161.473 101.353 138.045 95.2619 116.886 98.3505C105.072 100.077 93.8497 104.797 84.7043 112.536C83.289 113.734 85.3367 115.736 86.7407 114.558C103.282 100.589 126.761 97.4464 147.229 103.097C158.119 106.11 168.272 111.679 176.114 119.886C183.928 128.05 189.293 138.169 196.892 146.527C201.573 151.68 206.467 155.295 213.171 157.436C220.016 159.604 227.237 160.275 234.27 161.602C236.076 161.942 236.805 159.17 234.978 158.82Z" fill="#96B6DC"/>
<path d="M201.508 158.432C168.3 161.246 134.045 169.02 100.974 161.149C91.3779 158.869 82.2451 155.167 73.9104 149.918C72.3629 148.936 70.952 151.426 72.4995 152.408C102.607 171.31 139.538 168.237 173.272 164.353C182.696 163.272 192.104 162.077 201.554 161.274C203.365 161.142 203.329 158.28 201.508 158.432Z" fill="#96B6DC"/>
<path d="M181.388 145.111C155.484 125.196 120.07 120.208 88.4347 125.307C86.6161 125.593 87.3946 128.35 89.1933 128.053C119.703 123.131 154.369 127.906 179.357 147.118C180.794 148.248 182.825 146.241 181.388 145.111Z" fill="#96B6DC"/>
<path d="M152.624 145.655C139.293 146.995 125.874 144.313 113.336 139.892C111.605 139.279 110.896 142.062 112.627 142.674C125.367 147.157 139.101 149.886 152.659 148.517C154.472 148.333 154.468 145.463 152.624 145.655Z" fill="#96B6DC"/>
<path d="M193.93 172.269C181.11 179.715 167.709 186.516 153.127 189.648C137.509 192.982 121.942 191.213 106.556 187.548C95.8259 184.994 84.6927 181.527 76.7262 173.54C75.4217 172.221 73.399 174.259 74.7035 175.578C81.6189 182.496 90.8314 186.243 100.102 188.864C108.729 191.279 117.637 193.195 126.572 193.995C141.698 195.382 156.618 192.863 170.687 187.203C179.25 183.74 187.408 179.416 195.377 174.774C196.964 173.831 195.525 171.357 193.93 172.269Z" fill="#96B6DC"/>
<path d="M192.12 184.375C184.831 197.981 173.622 209.129 159.459 215.419C143.345 222.552 125.304 222.829 109.093 215.932C99.3082 211.756 90.3949 205.811 81.1688 200.556C79.5762 199.654 78.1454 202.133 79.7579 203.046C96.916 212.821 113.754 224.6 134.408 223.935C150.269 223.422 165.595 217.633 177.643 207.277C184.617 201.281 190.281 193.886 194.628 185.796C195.483 184.149 192.994 182.739 192.12 184.375Z" fill="#96B6DC"/>
<path d="M150.281 203.351C140.488 206.012 130.052 206.283 120.698 201.904C119.037 201.121 117.627 203.61 119.287 204.393C129.34 209.116 140.475 209.005 151.028 206.116C152.826 205.635 152.059 202.859 150.281 203.351Z" fill="#96B6DC"/>
<path d="M169.575 173.942C157.523 176.692 145.169 177.376 132.847 177.446C131.002 177.453 131.037 180.315 132.882 180.308C145.44 180.24 158.052 179.518 170.322 176.708C172.137 176.289 171.379 173.544 169.575 173.942Z" fill="#96B6DC"/>
<path d="M105.025 174.655C98.1766 173.327 91.4193 172.024 85.595 167.96C84.0814 166.919 82.6705 169.408 84.1841 170.45C90.2161 174.658 97.2661 176.047 104.347 177.428C106.123 177.776 106.851 175.005 105.025 174.655Z" fill="#96B6DC"/>
<path d="M93.6571 143.661C87.2952 142.635 81.0901 140.961 74.7169 139.955C72.9077 139.666 72.199 142.449 74.0081 142.737C80.37 143.763 86.5751 145.437 92.9483 146.443C94.7687 146.712 95.4861 143.96 93.6571 143.661Z" fill="#96B6DC"/>
<path d="M206.048 128.559C199.682 116.215 194.053 102.894 182.939 93.9645C171.243 84.5744 155.997 79.4087 141.057 79.3642C132.368 79.3353 123.747 80.9501 115.519 83.6822C113.767 84.2682 114.525 87.0138 116.278 86.4278C134.872 80.2541 153.967 80.9953 171.483 89.9995C179.428 94.0803 186.089 99.776 191.136 107.162C196.019 114.324 199.589 122.32 203.574 129.999C204.432 131.643 206.885 130.191 206.048 128.559Z" fill="#96B6DC"/>
<path d="M197.846 91.2801C192.664 85.7122 187.467 80.0307 181.211 75.6169C174.826 71.1042 167.548 68.5853 159.743 68.1101C157.914 67.995 157.949 70.857 159.778 70.9721C167.347 71.4454 174.271 74.0792 180.392 78.5475C186.168 82.7417 190.981 88.1265 195.824 93.3181C197.086 94.6647 199.097 92.6467 197.846 91.2801Z" fill="#96B6DC"/>
<path d="M282.009 255.073C282.657 246.178 279.946 236.063 275.025 228.643C271.632 223.536 265.211 217.371 258.543 220.645C252.705 223.521 251.937 231.56 253.398 237.151C255.048 243.428 258.484 249.664 263.07 254.289C265.329 256.569 268.14 258.662 271.364 259.331C274.75 260.039 277.88 258.971 280.533 256.842C281.977 255.687 279.929 253.684 278.497 254.82C268.979 262.426 259.443 246.023 256.898 238.818C255.264 234.182 254.448 227.825 258.537 224.089C263.187 219.829 269.419 225.493 272.018 229.307C276.996 236.628 279.793 246.265 279.156 255.141C279.02 256.959 281.882 256.922 282.009 255.073Z" fill="#96B6DC"/>
<path d="M279.747 255.03C274.984 250.252 271.839 244.154 268.566 238.326C267.666 236.711 265.182 238.172 266.093 239.767C269.488 245.796 272.808 252.098 277.735 257.048C279.02 258.355 281.062 256.328 279.747 255.03Z" fill="#96B6DC"/>
<path d="M262.653 267C257.625 264.966 252.537 263.083 247.332 261.502C241.39 259.688 234.77 257.726 228.49 258.273C226.276 258.466 223.899 259.04 222.384 260.786C220.716 262.709 220.781 265.378 221.408 267.707C222.385 271.366 224.39 274.976 227.362 277.344C230.766 280.062 235.02 281.42 239.291 281.866C248.434 282.81 260.047 279.443 263.262 269.871C263.855 268.128 261.062 267.44 260.48 269.163C257.979 276.64 248.74 279.3 241.666 279.16C237.765 279.081 233.754 278.176 230.452 276.068C227.476 274.172 225.581 271.203 224.452 267.905C224.087 266.831 223.769 265.676 223.838 264.532C223.876 263.816 224.137 263.122 224.454 262.749C225.449 261.55 227.302 261.205 229.039 261.11C234.672 260.776 240.477 262.46 245.816 264.038C248.964 264.98 252.076 266.033 255.154 267.145C256.35 267.586 257.547 268.027 258.752 268.5C259.264 268.711 259.767 268.89 260.278 269.101C260.73 269.279 261.072 269.419 261.242 269.49C262.939 270.162 264.37 267.683 262.653 267Z" fill="#96B6DC"/>
<path d="M260.817 268.801C254.573 269.237 248.354 268.424 242.151 268.093C240.311 267.998 240.346 270.86 242.186 270.955C248.389 271.286 254.609 272.099 260.852 271.663C262.683 271.543 262.659 268.661 260.817 268.801Z" fill="#96B6DC"/>
<path d="M244.735 241.531C241.848 234.606 238.461 227.029 232.331 222.345C228.586 219.486 223.431 216.933 218.601 217.196C216.535 217.315 214.527 218.072 213.338 219.846C211.971 221.887 212.122 224.499 212.556 226.797C213.708 232.792 218.765 237.236 223.954 239.913C229.633 242.842 236.542 244.573 242.942 243.489C244.752 243.172 243.974 240.415 242.183 240.743C237.52 241.548 232.415 240.392 228.077 238.671C223.379 236.798 218.671 233.735 216.33 229.094C214.853 226.177 213.835 220.548 218.358 220.085C222.305 219.664 226.638 221.856 229.805 224.019C235.879 228.197 239.229 235.7 241.97 242.28C242.671 243.967 245.436 243.218 244.735 241.531Z" fill="#96B6DC"/>
<path d="M242.549 239.819C237.891 237.179 233.554 234.064 228.896 231.424C227.303 230.522 225.872 233 227.485 233.914C232.143 236.554 236.48 239.669 241.138 242.308C242.751 243.222 244.162 240.732 242.549 239.819Z" fill="#96B6DC"/>
</g>
</svg>
